<?xml version="1.0" encoding="utf-8" standalone="no"?>
<!DOCTYPE svg PUBLIC "-//W3C//DTD SVG 1.1//EN"
  "http://www.w3.org/Graphics/SVG/1.1/DTD/svg11.dtd">
<svg xmlns:xlink="http://www.w3.org/1999/xlink" width="460.8pt" height="345.6pt" viewBox="0 0 460.8 345.6" xmlns="http://www.w3.org/2000/svg" version="1.1">
 <metadata>
  <rdf:RDF xmlns:dc="http://purl.org/dc/elements/1.1/" xmlns:cc="http://creativecommons.org/ns#" xmlns:rdf="http://www.w3.org/1999/02/22-rdf-syntax-ns#">
   <cc:Work>
    <dc:type rdf:resource="http://purl.org/dc/dcmitype/StillImage"/>
    <dc:date>2024-03-05T22:40:08.161748</dc:date>
    <dc:format>image/svg+xml</dc:format>
    <dc:creator>
     <cc:Agent>
      <dc:title>Matplotlib v3.8.0, https://matplotlib.org/</dc:title>
     </cc:Agent>
    </dc:creator>
   </cc:Work>
  </rdf:RDF>
 </metadata>
 <defs>
  <style type="text/css">*{stroke-linejoin: round; stroke-linecap: butt}</style>
 </defs>
 <g id="figure_1">
  <g id="patch_1">
   <path d="M 0 345.6 
L 460.8 345.6 
L 460.8 0 
L 0 0 
z
" style="fill: #ffffff"/>
  </g>
  <g id="axes_1">
   <g id="patch_2">
    <path d="M 57.6 307.584 
L 414.72 307.584 
L 414.72 41.472 
L 57.6 41.472 
z
" style="fill: #ffffff"/>
   </g>
   <g id="matplotlib.axis_1">
    <g id="xtick_1">
     <g id="line2d_1">
      <defs>
       <path id="m305341de3e" d="M 0 0 
L 0 3.5 
" style="stroke: #000000; stroke-width: 0.8"/>
      </defs>
      <g>
       <use xlink:href="#m305341de3e" x="73.832727" y="307.584" style="stroke: #000000; stroke-width: 0.8"/>
      </g>
     </g>
     <g id="text_1">
      <!-- Empty  -->
      <g transform="translate(62.02314 340.404649) rotate(-45) scale(0.1 -0.1)">
       <defs>
        <path id="CMSS17-45" d="M 1958 435 
C 1446 435 1216 435 1101 428 
L 1101 2105 
L 3085 2105 
L 3085 2496 
L 1101 2496 
L 1101 3993 
L 1926 3993 
C 2003 3993 2080 3987 2157 3987 
L 3251 3987 
L 3251 4403 
L 563 4403 
L 563 0 
L 3334 0 
L 3334 441 
L 1958 435 
z
" transform="scale(0.015625)"/>
        <path id="CMSS17-6d" d="M 4288 1878 
C 4288 2309 4179 2816 3462 2816 
C 2982 2816 2694 2515 2566 2328 
C 2451 2668 2182 2816 1798 2816 
C 1363 2816 1088 2566 941 2386 
L 941 2783 
L 474 2783 
L 474 0 
L 960 0 
L 960 1556 
C 960 1936 1101 2425 1555 2425 
C 2138 2425 2138 2013 2138 1826 
L 2138 0 
L 2624 0 
L 2624 1556 
C 2624 1936 2765 2425 3219 2425 
C 3802 2425 3802 2013 3802 1826 
L 3802 0 
L 4288 0 
L 4288 1878 
z
" transform="scale(0.015625)"/>
        <path id="CMSS17-70" d="M 966 275 
C 1178 70 1466 -64 1773 -64 
C 2368 -64 2880 553 2880 1382 
C 2880 2147 2496 2816 1946 2816 
C 1626 2816 1242 2700 954 2470 
L 954 2764 
L 480 2764 
L 480 -1280 
L 966 -1280 
L 966 275 
z
M 966 2088 
C 1018 2166 1235 2412 1587 2412 
C 2035 2412 2394 1946 2394 1382 
C 2394 741 1958 326 1530 326 
C 1402 326 1267 358 1139 468 
C 966 624 966 721 966 812 
L 966 2088 
z
" transform="scale(0.015625)"/>
        <path id="CMSS17-74" d="M 1069 2380 
L 1901 2380 
L 1901 2752 
L 1069 2752 
L 1069 3520 
L 614 3520 
L 614 2752 
L 109 2752 
L 109 2380 
L 602 2380 
L 602 751 
C 602 384 685 -64 1107 -64 
C 1427 -64 1722 25 2003 172 
L 1901 551 
C 1747 416 1562 339 1363 339 
C 1082 339 1069 699 1069 860 
L 1069 2380 
z
" transform="scale(0.015625)"/>
        <path id="CMSS17-79" d="M 2675 2752 
L 2176 2752 
C 1632 1293 1446 701 1434 383 
L 1427 383 
C 1408 695 1126 1459 902 2006 
L 602 2752 
L 83 2752 
L 1216 14 
C 1146 -177 1043 -464 1011 -527 
C 870 -884 774 -884 672 -884 
C 646 -884 442 -877 211 -807 
L 250 -1229 
C 410 -1261 570 -1280 685 -1280 
C 845 -1280 1165 -1280 1459 -495 
L 2675 2752 
z
" transform="scale(0.015625)"/>
       </defs>
       <use xlink:href="#CMSS17-45" transform="scale(0.996264)"/>
       <use xlink:href="#CMSS17-6d" transform="translate(55.892013 0) scale(0.996264)"/>
       <use xlink:href="#CMSS17-70" transform="translate(130.121268 0) scale(0.996264)"/>
       <use xlink:href="#CMSS17-74" transform="translate(178.326211 0) scale(0.996264)"/>
       <use xlink:href="#CMSS17-79" transform="translate(209.555324 0) scale(0.996264)"/>
      </g>
      <!--  (16x16) -->
      <g transform="translate(67.844737 350.003007) rotate(-45) scale(0.1 -0.1)">
       <defs>
        <path id="CMSS17-28" d="M 1613 4800 
C 1267 4447 474 3627 474 1603 
C 474 -428 1267 -1242 1613 -1600 
L 2003 -1600 
C 1216 -781 960 366 960 1596 
C 960 2820 1203 3973 2003 4800 
L 1613 4800 
z
" transform="scale(0.015625)"/>
        <path id="CMSS17-31" d="M 1818 4288 
L 1696 4288 
C 1350 3949 947 3902 538 3891 
L 538 3520 
C 723 3526 1024 3539 1325 3673 
L 1325 371 
L 570 371 
L 570 0 
L 2573 0 
L 2573 371 
L 1818 371 
L 1818 4288 
z
" transform="scale(0.015625)"/>
        <path id="CMSS17-36" d="M 2496 4159 
C 2227 4268 2035 4288 1856 4288 
C 1024 4288 250 3408 250 2023 
C 250 268 986 -128 1510 -128 
C 1798 -128 2086 -39 2362 281 
C 2643 619 2752 900 2752 1392 
C 2752 2183 2362 2886 1779 2886 
C 1357 2886 992 2662 768 2381 
C 832 3290 1254 3897 1862 3897 
C 2029 3897 2246 3871 2496 3760 
L 2496 4159 
z
M 774 1372 
C 774 1423 774 1455 781 1551 
C 781 2049 1069 2496 1536 2496 
C 1837 2496 1990 2336 2106 2138 
C 2240 1889 2246 1653 2246 1392 
C 2246 1143 2246 894 2099 638 
C 1978 441 1818 268 1510 268 
C 902 268 800 1117 774 1372 
z
" transform="scale(0.015625)"/>
        <path id="CMSS17-78" d="M 1587 1420 
L 2656 2752 
L 2099 2752 
L 1363 1785 
L 602 2752 
L 32 2752 
L 1139 1420 
L 0 0 
L 563 0 
L 1363 1126 
L 2195 0 
L 2758 0 
L 1587 1420 
z
" transform="scale(0.015625)"/>
        <path id="CMSS17-29" d="M 723 -1600 
C 1069 -1248 1862 -428 1862 1596 
C 1862 3627 1069 4440 723 4800 
L 333 4800 
C 1120 3979 1376 2833 1376 1603 
C 1376 379 1133 -774 333 -1600 
L 723 -1600 
z
" transform="scale(0.015625)"/>
       </defs>
       <use xlink:href="#CMSS17-28" transform="scale(0.996264)"/>
       <use xlink:href="#CMSS17-31" transform="translate(36.433914 0) scale(0.996264)"/>
       <use xlink:href="#CMSS17-36" transform="translate(83.277538 0) scale(0.996264)"/>
       <use xlink:href="#CMSS17-78" transform="translate(130.121161 0) scale(0.996264)"/>
       <use xlink:href="#CMSS17-31" transform="translate(173.121303 0) scale(0.996264)"/>
       <use xlink:href="#CMSS17-36" transform="translate(219.964926 0) scale(0.996264)"/>
       <use xlink:href="#CMSS17-29" transform="translate(266.80855 0) scale(0.996264)"/>
      </g>
     </g>
    </g>
    <g id="xtick_2">
     <g id="line2d_2">
      <g>
       <use xlink:href="#m305341de3e" x="154.996364" y="307.584" style="stroke: #000000; stroke-width: 0.8"/>
      </g>
     </g>
     <g id="text_2">
      <!-- Empty  -->
      <g transform="translate(143.186776 340.404649) rotate(-45) scale(0.1 -0.1)">
       <use xlink:href="#CMSS17-45" transform="scale(0.996264)"/>
       <use xlink:href="#CMSS17-6d" transform="translate(55.892013 0) scale(0.996264)"/>
       <use xlink:href="#CMSS17-70" transform="translate(130.121268 0) scale(0.996264)"/>
       <use xlink:href="#CMSS17-74" transform="translate(178.326211 0) scale(0.996264)"/>
       <use xlink:href="#CMSS17-79" transform="translate(209.555324 0) scale(0.996264)"/>
      </g>
      <!--  (32x32) -->
      <g transform="translate(149.008373 350.003007) rotate(-45) scale(0.1 -0.1)">
       <defs>
        <path id="CMSS17-33" d="M 1005 2060 
L 1440 2060 
C 2042 2060 2214 1532 2214 1164 
C 2214 662 1933 268 1472 268 
C 1114 268 608 449 320 926 
C 275 700 275 687 250 533 
C 550 89 1037 -128 1485 -128 
C 2214 -128 2752 481 2752 1158 
C 2752 1667 2400 2092 1920 2252 
C 2304 2463 2586 2860 2586 3321 
C 2586 3859 2093 4288 1491 4288 
C 941 4288 512 3948 333 3583 
C 378 3519 493 3334 550 3238 
C 691 3615 1056 3897 1485 3897 
C 1843 3897 2080 3660 2080 3321 
C 2080 2969 1856 2585 1478 2496 
C 1453 2496 1056 2457 1005 2451 
L 1005 2060 
z
" transform="scale(0.015625)"/>
        <path id="CMSS17-32" d="M 1651 1353 
C 1830 1538 2099 1761 2285 1984 
C 2464 2201 2701 2507 2701 2953 
C 2701 3655 2227 4288 1421 4288 
C 787 4288 422 3891 250 3272 
L 499 2928 
C 640 3508 838 3878 1338 3878 
C 1888 3878 2195 3431 2195 2940 
C 2195 2354 1747 1901 1408 1563 
C 1030 1187 659 805 301 409 
L 301 0 
L 2701 0 
L 2701 435 
L 1613 435 
C 1536 435 1459 428 1382 428 
L 742 428 
L 742 435 
L 1651 1353 
z
" transform="scale(0.015625)"/>
       </defs>
       <use xlink:href="#CMSS17-28" transform="scale(0.996264)"/>
       <use xlink:href="#CMSS17-33" transform="translate(36.433914 0) scale(0.996264)"/>
       <use xlink:href="#CMSS17-32" transform="translate(83.277538 0) scale(0.996264)"/>
       <use xlink:href="#CMSS17-78" transform="translate(130.121161 0) scale(0.996264)"/>
       <use xlink:href="#CMSS17-33" transform="translate(173.121303 0) scale(0.996264)"/>
       <use xlink:href="#CMSS17-32" transform="translate(219.964926 0) scale(0.996264)"/>
       <use xlink:href="#CMSS17-29" transform="translate(266.80855 0) scale(0.996264)"/>
      </g>
     </g>
    </g>
    <g id="xtick_3">
     <g id="line2d_3">
      <g>
       <use xlink:href="#m305341de3e" x="236.16" y="307.584" style="stroke: #000000; stroke-width: 0.8"/>
      </g>
     </g>
     <g id="text_3">
      <!-- Maze  -->
      <g transform="translate(225.999046 338.756016) rotate(-45) scale(0.1 -0.1)">
       <defs>
        <path id="CMSS17-4d" d="M 3194 2373 
L 2886 1476 
C 2835 1311 2662 795 2624 592 
L 2618 592 
C 2598 719 2560 853 2458 1177 
C 2400 1368 2336 1565 2272 1743 
L 1325 4416 
L 576 4416 
L 576 0 
L 1075 0 
L 1075 3899 
L 1082 3899 
C 1082 3893 1139 3613 1530 2500 
L 2374 102 
L 2848 102 
L 3610 2233 
C 3661 2379 3821 2843 3891 3066 
C 3955 3257 4115 3728 4154 3912 
L 4160 3912 
L 4160 0 
L 4666 0 
L 4666 4416 
L 3923 4416 
L 3194 2373 
z
" transform="scale(0.015625)"/>
        <path id="CMSS17-61" d="M 2406 1789 
C 2406 2399 1978 2816 1402 2816 
C 1120 2816 813 2764 461 2559 
L 499 2133 
C 659 2250 934 2438 1395 2438 
C 1722 2438 1920 2185 1920 1782 
L 1920 1536 
C 896 1504 256 1209 256 711 
C 256 452 416 -64 947 -64 
C 1043 -64 1562 -52 1933 224 
L 1933 -13 
L 2406 -13 
L 2406 1789 
z
M 1920 824 
C 1920 711 1920 559 1728 446 
C 1562 339 1350 326 1261 326 
C 941 326 723 503 723 723 
C 723 1165 1722 1209 1920 1216 
L 1920 824 
z
" transform="scale(0.015625)"/>
        <path id="CMSS17-7a" d="M 2400 2502 
L 2400 2752 
L 250 2752 
L 250 2367 
L 1069 2367 
C 1146 2367 1222 2374 1299 2374 
L 1747 2374 
L 166 262 
L 166 0 
L 2419 0 
L 2419 396 
L 1549 396 
C 1472 396 1395 390 1318 390 
L 826 390 
L 2400 2502 
z
" transform="scale(0.015625)"/>
        <path id="CMSS17-65" d="M 2502 1375 
C 2502 1587 2490 2001 2285 2347 
C 2061 2713 1696 2816 1421 2816 
C 755 2816 192 2184 192 1363 
C 192 579 774 -64 1510 -64 
C 1798 -64 2150 19 2470 249 
C 2470 275 2458 414 2451 421 
C 2451 433 2432 629 2432 655 
C 2125 408 1773 326 1517 326 
C 1107 326 666 667 646 1375 
L 2502 1375 
z
M 698 1728 
C 781 2086 1062 2425 1421 2425 
C 1517 2425 1965 2412 2080 1728 
L 698 1728 
z
" transform="scale(0.015625)"/>
       </defs>
       <use xlink:href="#CMSS17-4d" transform="scale(0.996264)"/>
       <use xlink:href="#CMSS17-61" transform="translate(81.67603 0) scale(0.996264)"/>
       <use xlink:href="#CMSS17-7a" transform="translate(126.597951 0) scale(0.996264)"/>
       <use xlink:href="#CMSS17-65" transform="translate(167.275822 0) scale(0.996264)"/>
      </g>
      <!--  (32x32) -->
      <g transform="translate(230.17201 350.003007) rotate(-45) scale(0.1 -0.1)">
       <use xlink:href="#CMSS17-28" transform="scale(0.996264)"/>
       <use xlink:href="#CMSS17-33" transform="translate(36.433914 0) scale(0.996264)"/>
       <use xlink:href="#CMSS17-32" transform="translate(83.277538 0) scale(0.996264)"/>
       <use xlink:href="#CMSS17-78" transform="translate(130.121161 0) scale(0.996264)"/>
       <use xlink:href="#CMSS17-33" transform="translate(173.121303 0) scale(0.996264)"/>
       <use xlink:href="#CMSS17-32" transform="translate(219.964926 0) scale(0.996264)"/>
       <use xlink:href="#CMSS17-29" transform="translate(266.80855 0) scale(0.996264)"/>
      </g>
     </g>
    </g>
    <g id="xtick_4">
     <g id="line2d_4">
      <g>
       <use xlink:href="#m305341de3e" x="317.323636" y="307.584" style="stroke: #000000; stroke-width: 0.8"/>
      </g>
     </g>
     <g id="text_4">
      <!-- Dense  -->
      <g transform="translate(306.189163 339.729535) rotate(-45) scale(0.1 -0.1)">
       <defs>
        <path id="CMSS17-44" d="M 570 4416 
L 570 0 
L 2144 0 
C 3194 0 4000 981 4000 2169 
C 4000 3396 3194 4416 2144 4416 
L 570 4416 
z
M 1094 358 
L 1094 4057 
L 2003 4057 
C 2861 4057 3475 3275 3475 2169 
C 3475 1108 2867 358 2003 358 
L 1094 358 
z
" transform="scale(0.015625)"/>
        <path id="CMSS17-6e" d="M 2618 1878 
C 2618 2283 2522 2816 1798 2816 
C 1389 2816 1120 2604 941 2386 
L 941 2783 
L 474 2783 
L 474 0 
L 960 0 
L 960 1556 
C 960 1962 1114 2425 1549 2425 
C 2112 2425 2131 2045 2131 1826 
L 2131 0 
L 2618 0 
L 2618 1878 
z
" transform="scale(0.015625)"/>
        <path id="CMSS17-73" d="M 2061 2623 
C 1683 2803 1389 2816 1197 2816 
C 742 2816 198 2655 198 2009 
C 198 1363 902 1222 1094 1183 
C 1389 1126 1715 1062 1715 742 
C 1715 339 1254 339 1171 339 
C 915 339 563 409 243 639 
L 166 211 
C 531 0 883 -64 1178 -64 
C 1965 -64 2163 416 2163 780 
C 2163 1094 1984 1305 1862 1401 
C 1651 1567 1574 1587 1050 1695 
C 960 1708 646 1779 646 2067 
C 646 2431 1050 2431 1139 2431 
C 1555 2431 1811 2303 1984 2207 
L 2061 2623 
z
" transform="scale(0.015625)"/>
       </defs>
       <use xlink:href="#CMSS17-44" transform="scale(0.996264)"/>
       <use xlink:href="#CMSS17-65" transform="translate(67.542842 0) scale(0.996264)"/>
       <use xlink:href="#CMSS17-6e" transform="translate(109.181664 0) scale(0.996264)"/>
       <use xlink:href="#CMSS17-73" transform="translate(157.386607 0) scale(0.996264)"/>
       <use xlink:href="#CMSS17-65" transform="translate(193.300149 0) scale(0.996264)"/>
      </g>
      <!--  (65x81) -->
      <g transform="translate(311.335646 350.003007) rotate(-45) scale(0.1 -0.1)">
       <defs>
        <path id="CMSS17-35" d="M 934 3814 
L 2502 3814 
L 2502 4224 
L 467 4224 
L 467 1830 
L 896 1830 
C 1011 2103 1248 2304 1555 2304 
C 1843 2304 2163 2044 2163 1299 
C 2163 502 1709 268 1376 268 
C 966 268 589 521 422 871 
L 218 508 
C 512 51 992 -128 1376 -128 
C 2118 -128 2701 508 2701 1286 
C 2701 2083 2182 2694 1562 2694 
C 1338 2694 1120 2617 934 2464 
L 934 3814 
z
" transform="scale(0.015625)"/>
        <path id="CMSS17-38" d="M 1933 2246 
C 2419 2406 2669 2793 2669 3174 
C 2669 3774 2157 4288 1504 4288 
C 826 4288 333 3755 333 3174 
C 333 2799 576 2412 1069 2246 
C 442 2003 250 1516 250 1152 
C 250 448 819 -128 1498 -128 
C 2202 -128 2752 460 2752 1152 
C 2752 1574 2502 2022 1933 2246 
z
M 1504 2438 
C 1075 2438 787 2728 787 3167 
C 787 3613 1075 3897 1504 3897 
C 1901 3897 2214 3639 2214 3167 
C 2214 2703 1907 2438 1504 2438 
z
M 1504 268 
C 1139 268 749 518 749 1158 
C 749 1817 1184 2048 1498 2048 
C 1843 2048 2253 1804 2253 1158 
C 2253 492 1830 268 1504 268 
z
" transform="scale(0.015625)"/>
       </defs>
       <use xlink:href="#CMSS17-28" transform="scale(0.996264)"/>
       <use xlink:href="#CMSS17-36" transform="translate(36.433914 0) scale(0.996264)"/>
       <use xlink:href="#CMSS17-35" transform="translate(83.277538 0) scale(0.996264)"/>
       <use xlink:href="#CMSS17-78" transform="translate(130.121161 0) scale(0.996264)"/>
       <use xlink:href="#CMSS17-38" transform="translate(173.121303 0) scale(0.996264)"/>
       <use xlink:href="#CMSS17-31" transform="translate(219.964926 0) scale(0.996264)"/>
       <use xlink:href="#CMSS17-29" transform="translate(266.80855 0) scale(0.996264)"/>
      </g>
     </g>
    </g>
    <g id="xtick_5">
     <g id="line2d_5">
      <g>
       <use xlink:href="#m305341de3e" x="398.487273" y="307.584" style="stroke: #000000; stroke-width: 0.8"/>
      </g>
     </g>
     <g id="text_5">
      <!-- East Boston  -->
      <g transform="translate(378.723091 355.286473) rotate(-45) scale(0.1 -0.1)">
       <defs>
        <path id="CMSS17-42" d="M 570 4416 
L 570 0 
L 2163 0 
C 3034 0 3667 575 3667 1200 
C 3667 1684 3251 2175 2502 2316 
C 3334 2559 3501 3039 3501 3311 
C 3501 3880 2874 4416 1997 4416 
L 570 4416 
z
M 1088 2496 
L 1088 4057 
L 1824 4057 
C 2483 4057 3002 3722 3002 3305 
C 3002 2925 2592 2496 1766 2496 
L 1088 2496 
z
M 1088 358 
L 1088 2105 
L 1939 2105 
C 2630 2105 3162 1678 3162 1206 
C 3162 772 2694 358 1984 358 
L 1088 358 
z
" transform="scale(0.015625)"/>
        <path id="CMSS17-6f" d="M 2829 1356 
C 2829 2175 2221 2816 1504 2816 
C 768 2816 173 2156 173 1356 
C 173 544 787 -64 1498 -64 
C 2227 -64 2829 563 2829 1356 
z
M 1504 339 
C 1050 339 659 710 659 1407 
C 659 2150 1114 2425 1498 2425 
C 1914 2425 2342 2124 2342 1407 
C 2342 684 1926 339 1504 339 
z
" transform="scale(0.015625)"/>
       </defs>
       <use xlink:href="#CMSS17-45" transform="scale(0.996264)"/>
       <use xlink:href="#CMSS17-61" transform="translate(55.892013 0) scale(0.996264)"/>
       <use xlink:href="#CMSS17-73" transform="translate(100.813934 0) scale(0.996264)"/>
       <use xlink:href="#CMSS17-74" transform="translate(136.727476 0) scale(0.996264)"/>
       <use xlink:href="#CMSS17-42" transform="translate(201.788155 0) scale(0.996264)"/>
       <use xlink:href="#CMSS17-6f" transform="translate(264.126195 0) scale(0.996264)"/>
       <use xlink:href="#CMSS17-73" transform="translate(310.969819 0) scale(0.996264)"/>
       <use xlink:href="#CMSS17-74" transform="translate(346.883361 0) scale(0.996264)"/>
       <use xlink:href="#CMSS17-6f" transform="translate(380.714928 0) scale(0.996264)"/>
       <use xlink:href="#CMSS17-6e" transform="translate(427.558551 0) scale(0.996264)"/>
      </g>
      <!--  Harbor -->
      <g transform="translate(393.790799 354.69943) rotate(-45) scale(0.1 -0.1)">
       <defs>
        <path id="CMSS17-48" d="M 3674 4416 
L 3136 4416 
L 3136 2496 
L 1101 2496 
L 1101 4416 
L 563 4416 
L 563 0 
L 1101 0 
L 1101 2105 
L 3136 2105 
L 3136 0 
L 3674 0 
L 3674 4416 
z
" transform="scale(0.015625)"/>
        <path id="CMSS17-72" d="M 954 1369 
C 954 1974 1395 2379 1958 2392 
L 1958 2816 
C 1549 2809 1165 2604 934 2270 
L 934 2783 
L 480 2783 
L 480 0 
L 954 0 
L 954 1369 
z
" transform="scale(0.015625)"/>
        <path id="CMSS17-62" d="M 954 4416 
L 480 4416 
L 480 -13 
L 966 -13 
L 966 275 
C 1210 38 1504 -64 1766 -64 
C 2381 -64 2880 559 2880 1382 
C 2880 2133 2496 2816 1926 2816 
C 1523 2816 1165 2649 954 2476 
L 954 4416 
z
M 966 2095 
C 1107 2276 1306 2425 1587 2425 
C 1965 2425 2394 2146 2394 1382 
C 2394 566 1882 326 1530 326 
C 1402 326 1267 358 1139 468 
C 966 624 966 721 966 812 
L 966 2095 
z
" transform="scale(0.015625)"/>
       </defs>
       <use xlink:href="#CMSS17-48" transform="scale(0.996264)"/>
       <use xlink:href="#CMSS17-61" transform="translate(66.061519 0) scale(0.996264)"/>
       <use xlink:href="#CMSS17-72" transform="translate(108.380986 0) scale(0.996264)"/>
       <use xlink:href="#CMSS17-62" transform="translate(140.290758 0) scale(0.996264)"/>
       <use xlink:href="#CMSS17-6f" transform="translate(191.09814 0) scale(0.996264)"/>
       <use xlink:href="#CMSS17-72" transform="translate(235.33931 0) scale(0.996264)"/>
      </g>
     </g>
    </g>
   </g>
   <g id="matplotlib.axis_2">
    <g id="ytick_1">
     <g id="line2d_6">
      <defs>
       <path id="m598ee6d4ce" d="M 0 0 
L -3.5 0 
" style="stroke: #000000; stroke-width: 0.8"/>
      </defs>
      <g>
       <use xlink:href="#m598ee6d4ce" x="57.6" y="307.282567" style="stroke: #000000; stroke-width: 0.8"/>
      </g>
     </g>
     <g id="text_6">
      <!-- 0.0% -->
      <g transform="translate(37.869921 310.741816) scale(0.1 -0.1)">
       <defs>
        <path id="CMSS17-30" d="M 2758 2073 
C 2758 2439 2752 3120 2490 3647 
C 2227 4153 1805 4288 1504 4288 
C 1069 4288 698 4031 506 3621 
C 301 3191 243 2748 243 2073 
C 243 1611 262 1046 493 551 
C 755 6 1197 -128 1498 -128 
C 1894 -128 2278 83 2496 525 
C 2720 988 2758 1495 2758 2073 
z
M 1498 262 
C 1011 262 864 821 819 1007 
C 742 1328 730 1636 730 2144 
C 730 2542 730 2992 851 3345 
C 998 3756 1254 3897 1498 3897 
C 1971 3897 2125 3422 2176 3255 
C 2272 2915 2272 2516 2272 2144 
C 2272 1546 2272 262 1498 262 
z
" transform="scale(0.015625)"/>
        <path id="CMSS17-2e" d="M 1088 512 
L 576 512 
L 576 0 
L 1088 0 
L 1088 512 
z
" transform="scale(0.015625)"/>
       </defs>
       <use xlink:href="#CMSS17-30" transform="scale(0.996264)"/>
       <use xlink:href="#CMSS17-2e" transform="translate(46.843624 0) scale(0.996264)"/>
       <use xlink:href="#CMSS17-30" transform="translate(72.867828 0) scale(0.996264)"/>
      </g>
     </g>
    </g>
    <g id="ytick_2">
     <g id="line2d_7">
      <g>
       <use xlink:href="#m598ee6d4ce" x="57.6" y="272.938454" style="stroke: #000000; stroke-width: 0.8"/>
      </g>
     </g>
     <g id="text_7">
      <!-- 0.0% -->
      <g transform="translate(37.869921 276.397703) scale(0.1 -0.1)">
       <use xlink:href="#CMSS17-30" transform="scale(0.996264)"/>
       <use xlink:href="#CMSS17-2e" transform="translate(46.843624 0) scale(0.996264)"/>
       <use xlink:href="#CMSS17-30" transform="translate(72.867828 0) scale(0.996264)"/>
      </g>
     </g>
    </g>
    <g id="ytick_3">
     <g id="line2d_8">
      <g>
       <use xlink:href="#m598ee6d4ce" x="57.6" y="238.594341" style="stroke: #000000; stroke-width: 0.8"/>
      </g>
     </g>
     <g id="text_8">
      <!-- 0.1% -->
      <g transform="translate(37.869921 242.05359) scale(0.1 -0.1)">
       <use xlink:href="#CMSS17-30" transform="scale(0.996264)"/>
       <use xlink:href="#CMSS17-2e" transform="translate(46.843624 0) scale(0.996264)"/>
       <use xlink:href="#CMSS17-31" transform="translate(72.867828 0) scale(0.996264)"/>
      </g>
     </g>
    </g>
    <g id="ytick_4">
     <g id="line2d_9">
      <g>
       <use xlink:href="#m598ee6d4ce" x="57.6" y="204.250228" style="stroke: #000000; stroke-width: 0.8"/>
      </g>
     </g>
     <g id="text_9">
      <!-- 0.1% -->
      <g transform="translate(37.869921 207.709477) scale(0.1 -0.1)">
       <use xlink:href="#CMSS17-30" transform="scale(0.996264)"/>
       <use xlink:href="#CMSS17-2e" transform="translate(46.843624 0) scale(0.996264)"/>
       <use xlink:href="#CMSS17-31" transform="translate(72.867828 0) scale(0.996264)"/>
      </g>
     </g>
    </g>
    <g id="ytick_5">
     <g id="line2d_10">
      <g>
       <use xlink:href="#m598ee6d4ce" x="57.6" y="169.906115" style="stroke: #000000; stroke-width: 0.8"/>
      </g>
     </g>
     <g id="text_10">
      <!-- 0.1% -->
      <g transform="translate(37.869921 173.365364) scale(0.1 -0.1)">
       <use xlink:href="#CMSS17-30" transform="scale(0.996264)"/>
       <use xlink:href="#CMSS17-2e" transform="translate(46.843624 0) scale(0.996264)"/>
       <use xlink:href="#CMSS17-31" transform="translate(72.867828 0) scale(0.996264)"/>
      </g>
     </g>
    </g>
    <g id="ytick_6">
     <g id="line2d_11">
      <g>
       <use xlink:href="#m598ee6d4ce" x="57.6" y="135.562002" style="stroke: #000000; stroke-width: 0.8"/>
      </g>
     </g>
     <g id="text_11">
      <!-- 0.1% -->
      <g transform="translate(37.869921 139.021251) scale(0.1 -0.1)">
       <use xlink:href="#CMSS17-30" transform="scale(0.996264)"/>
       <use xlink:href="#CMSS17-2e" transform="translate(46.843624 0) scale(0.996264)"/>
       <use xlink:href="#CMSS17-31" transform="translate(72.867828 0) scale(0.996264)"/>
      </g>
     </g>
    </g>
    <g id="ytick_7">
     <g id="line2d_12">
      <g>
       <use xlink:href="#m598ee6d4ce" x="57.6" y="101.217889" style="stroke: #000000; stroke-width: 0.8"/>
      </g>
     </g>
     <g id="text_12">
      <!-- 0.1% -->
      <g transform="translate(37.869921 104.677138) scale(0.1 -0.1)">
       <use xlink:href="#CMSS17-30" transform="scale(0.996264)"/>
       <use xlink:href="#CMSS17-2e" transform="translate(46.843624 0) scale(0.996264)"/>
       <use xlink:href="#CMSS17-31" transform="translate(72.867828 0) scale(0.996264)"/>
      </g>
     </g>
    </g>
    <g id="ytick_8">
     <g id="line2d_13">
      <g>
       <use xlink:href="#m598ee6d4ce" x="57.6" y="66.873776" style="stroke: #000000; stroke-width: 0.8"/>
      </g>
     </g>
     <g id="text_13">
      <!-- 0.2% -->
      <g transform="translate(37.869921 70.333025) scale(0.1 -0.1)">
       <use xlink:href="#CMSS17-30" transform="scale(0.996264)"/>
       <use xlink:href="#CMSS17-2e" transform="translate(46.843624 0) scale(0.996264)"/>
       <use xlink:href="#CMSS17-32" transform="translate(72.867828 0) scale(0.996264)"/>
      </g>
     </g>
    </g>
   </g>
   <g id="line2d_14">
    <path d="M 73.832727 53.568 
L 154.996364 240.887411 
L 236.16 270.299191 
L 317.323636 249.006428 
L 398.487273 255.484413 
" clip-path="url(#pc76f3d78ff)" style="fill: none; stroke: #d62728; stroke-width: 1.5; stroke-linecap: square"/>
    <defs>
     <path id="m1ac2ed6059" d="M -3 3 
L 3 -3 
M -3 -3 
L 3 3 
" style="stroke: #d62728"/>
    </defs>
    <g clip-path="url(#pc76f3d78ff)">
     <use xlink:href="#m1ac2ed6059" x="73.832727" y="53.568" style="fill: #d62728; stroke: #d62728"/>
     <use xlink:href="#m1ac2ed6059" x="154.996364" y="240.887411" style="fill: #d62728; stroke: #d62728"/>
     <use xlink:href="#m1ac2ed6059" x="236.16" y="270.299191" style="fill: #d62728; stroke: #d62728"/>
     <use xlink:href="#m1ac2ed6059" x="317.323636" y="249.006428" style="fill: #d62728; stroke: #d62728"/>
     <use xlink:href="#m1ac2ed6059" x="398.487273" y="255.484413" style="fill: #d62728; stroke: #d62728"/>
    </g>
   </g>
   <g id="line2d_15">
    <path d="M 73.832727 255.344911 
L 154.996364 294.888477 
L 236.16 294.515724 
L 317.323636 290.66963 
L 398.487273 295.488 
" clip-path="url(#pc76f3d78ff)" style="fill: none; stroke: #1f77b4; stroke-width: 1.5; stroke-linecap: square"/>
    <defs>
     <path id="m132b57350c" d="M -3 3 
L 3 -3 
M -3 -3 
L 3 3 
" style="stroke: #1f77b4"/>
    </defs>
    <g clip-path="url(#pc76f3d78ff)">
     <use xlink:href="#m132b57350c" x="73.832727" y="255.344911" style="fill: #1f77b4; stroke: #1f77b4"/>
     <use xlink:href="#m132b57350c" x="154.996364" y="294.888477" style="fill: #1f77b4; stroke: #1f77b4"/>
     <use xlink:href="#m132b57350c" x="236.16" y="294.515724" style="fill: #1f77b4; stroke: #1f77b4"/>
     <use xlink:href="#m132b57350c" x="317.323636" y="290.66963" style="fill: #1f77b4; stroke: #1f77b4"/>
     <use xlink:href="#m132b57350c" x="398.487273" y="295.488" style="fill: #1f77b4; stroke: #1f77b4"/>
    </g>
   </g>
   <g id="patch_3">
    <path d="M 57.6 307.584 
L 57.6 41.472 
" style="fill: none; stroke: #000000; stroke-width: 0.8; stroke-linejoin: miter; stroke-linecap: square"/>
   </g>
   <g id="patch_4">
    <path d="M 414.72 307.584 
L 414.72 41.472 
" style="fill: none; stroke: #000000; stroke-width: 0.8; stroke-linejoin: miter; stroke-linecap: square"/>
   </g>
   <g id="patch_5">
    <path d="M 57.6 307.584 
L 414.72 307.584 
" style="fill: none; stroke: #000000; stroke-width: 0.8; stroke-linejoin: miter; stroke-linecap: square"/>
   </g>
   <g id="patch_6">
    <path d="M 57.6 41.472 
L 414.72 41.472 
" style="fill: none; stroke: #000000; stroke-width: 0.8; stroke-linejoin: miter; stroke-linecap: square"/>
   </g>
   <g id="legend_1">
    <g id="patch_7">
     <path d="M 321.257486 97.662106 
L 407.72 97.662106 
Q 409.72 97.662106 409.72 95.662106 
L 409.72 48.472 
Q 409.72 46.472 407.72 46.472 
L 321.257486 46.472 
Q 319.257486 46.472 319.257486 48.472 
L 319.257486 95.662106 
Q 319.257486 97.662106 321.257486 97.662106 
z
" style="fill: #ffffff; opacity: 0.8; stroke: #cccccc; stroke-linejoin: miter"/>
    </g>
    <g id="line2d_16">
     <path d="M 323.257486 59.978776 
L 333.257486 59.978776 
L 343.257486 59.978776 
" style="fill: none; stroke: #d62728; stroke-width: 1.5; stroke-linecap: square"/>
     <g>
      <use xlink:href="#m1ac2ed6059" x="333.257486" y="59.978776" style="fill: #d62728; stroke: #d62728"/>
     </g>
    </g>
    <g id="text_14">
     <!-- Generated to  -->
     <g transform="translate(351.257486 57.390498) scale(0.1 -0.1)">
      <defs>
       <path id="CMSS17-47" d="M 3610 1868 
L 2336 1868 
L 2336 1472 
L 3123 1472 
L 3123 473 
C 2874 403 2618 352 2362 352 
C 1466 352 934 1311 934 2220 
C 934 3123 1491 4070 2362 4070 
C 2854 4070 3130 3916 3469 3660 
L 3552 4172 
C 3130 4390 2867 4480 2387 4480 
C 1146 4480 397 3353 397 2201 
C 397 1100 1152 -64 2349 -64 
C 2797 -64 3213 51 3610 249 
L 3610 1868 
z
" transform="scale(0.015625)"/>
       <path id="CMSS17-64" d="M 2611 4416 
L 2138 4416 
L 2138 2495 
C 1939 2662 1613 2816 1254 2816 
C 672 2816 211 2179 211 1375 
C 211 572 666 -64 1235 -64 
C 1677 -64 1971 172 2125 307 
L 2125 -13 
L 2611 -13 
L 2611 4416 
z
M 2125 851 
C 2125 760 2125 663 1926 488 
C 1798 378 1645 326 1498 326 
C 1152 326 698 585 698 1369 
C 698 2185 1210 2425 1562 2425 
C 1798 2425 1990 2308 2125 2114 
L 2125 851 
z
" transform="scale(0.015625)"/>
      </defs>
      <use xlink:href="#CMSS17-47" transform="scale(0.996264)"/>
      <use xlink:href="#CMSS17-65" transform="translate(62.458226 0) scale(0.996264)"/>
      <use xlink:href="#CMSS17-6e" transform="translate(104.097048 0) scale(0.996264)"/>
      <use xlink:href="#CMSS17-65" transform="translate(152.301991 0) scale(0.996264)"/>
      <use xlink:href="#CMSS17-72" transform="translate(193.940813 0) scale(0.996264)"/>
      <use xlink:href="#CMSS17-61" transform="translate(225.850585 0) scale(0.996264)"/>
      <use xlink:href="#CMSS17-74" transform="translate(270.772506 0) scale(0.996264)"/>
      <use xlink:href="#CMSS17-65" transform="translate(304.604073 0) scale(0.996264)"/>
      <use xlink:href="#CMSS17-64" transform="translate(346.242895 0) scale(0.996264)"/>
      <use xlink:href="#CMSS17-74" transform="translate(425.676951 0) scale(0.996264)"/>
      <use xlink:href="#CMSS17-6f" transform="translate(459.508517 0) scale(0.996264)"/>
     </g>
     <!--  Max Possible -->
     <g transform="translate(351.257486 67.629875) scale(0.1 -0.1)">
      <defs>
       <path id="CMSS17-50" d="M 2106 1856 
C 2874 1856 3501 2447 3501 3139 
C 3501 3818 2899 4416 2067 4416 
L 570 4416 
L 570 0 
L 1107 0 
L 1107 1856 
L 2106 1856 
z
M 1926 4057 
C 2669 4057 2995 3598 2995 3139 
C 2995 2711 2694 2227 1926 2227 
L 1094 2227 
L 1094 4057 
L 1926 4057 
z
" transform="scale(0.015625)"/>
       <path id="CMSS17-69" d="M 979 4224 
L 442 4224 
L 442 3686 
L 979 3686 
L 979 4224 
z
M 947 2752 
L 474 2752 
L 474 0 
L 947 0 
L 947 2752 
z
" transform="scale(0.015625)"/>
       <path id="CMSS17-6c" d="M 947 4416 
L 474 4416 
L 474 0 
L 947 0 
L 947 4416 
z
" transform="scale(0.015625)"/>
      </defs>
      <use xlink:href="#CMSS17-4d" transform="scale(0.996264)"/>
      <use xlink:href="#CMSS17-61" transform="translate(81.67603 0) scale(0.996264)"/>
      <use xlink:href="#CMSS17-78" transform="translate(126.597951 0) scale(0.996264)"/>
      <use xlink:href="#CMSS17-50" transform="translate(200.827205 0) scale(0.996264)"/>
      <use xlink:href="#CMSS17-6f" transform="translate(257.960337 0) scale(0.996264)"/>
      <use xlink:href="#CMSS17-73" transform="translate(304.803961 0) scale(0.996264)"/>
      <use xlink:href="#CMSS17-73" transform="translate(340.717503 0) scale(0.996264)"/>
      <use xlink:href="#CMSS17-69" transform="translate(376.631045 0) scale(0.996264)"/>
      <use xlink:href="#CMSS17-62" transform="translate(398.811768 0) scale(0.996264)"/>
      <use xlink:href="#CMSS17-6c" transform="translate(447.016711 0) scale(0.996264)"/>
      <use xlink:href="#CMSS17-65" transform="translate(469.197434 0) scale(0.996264)"/>
     </g>
    </g>
    <g id="line2d_17">
     <path d="M 323.257486 84.073829 
L 333.257486 84.073829 
L 343.257486 84.073829 
" style="fill: none; stroke: #1f77b4; stroke-width: 1.5; stroke-linecap: square"/>
     <g>
      <use xlink:href="#m132b57350c" x="333.257486" y="84.073829" style="fill: #1f77b4; stroke: #1f77b4"/>
     </g>
    </g>
    <g id="text_15">
     <!-- Expanded to  -->
     <g transform="translate(351.257486 81.485551) scale(0.1 -0.1)">
      <use xlink:href="#CMSS17-45" transform="scale(0.996264)"/>
      <use xlink:href="#CMSS17-78" transform="translate(55.892013 0) scale(0.996264)"/>
      <use xlink:href="#CMSS17-70" transform="translate(98.892155 0) scale(0.996264)"/>
      <use xlink:href="#CMSS17-61" transform="translate(147.097098 0) scale(0.996264)"/>
      <use xlink:href="#CMSS17-6e" transform="translate(192.019019 0) scale(0.996264)"/>
      <use xlink:href="#CMSS17-64" transform="translate(240.223962 0) scale(0.996264)"/>
      <use xlink:href="#CMSS17-65" transform="translate(288.428905 0) scale(0.996264)"/>
      <use xlink:href="#CMSS17-64" transform="translate(330.067727 0) scale(0.996264)"/>
      <use xlink:href="#CMSS17-74" transform="translate(409.501783 0) scale(0.996264)"/>
      <use xlink:href="#CMSS17-6f" transform="translate(443.33335 0) scale(0.996264)"/>
     </g>
     <!--  Max Possible -->
     <g transform="translate(351.257486 91.724928) scale(0.1 -0.1)">
      <use xlink:href="#CMSS17-4d" transform="scale(0.996264)"/>
      <use xlink:href="#CMSS17-61" transform="translate(81.67603 0) scale(0.996264)"/>
      <use xlink:href="#CMSS17-78" transform="translate(126.597951 0) scale(0.996264)"/>
      <use xlink:href="#CMSS17-50" transform="translate(200.827205 0) scale(0.996264)"/>
      <use xlink:href="#CMSS17-6f" transform="translate(257.960337 0) scale(0.996264)"/>
      <use xlink:href="#CMSS17-73" transform="translate(304.803961 0) scale(0.996264)"/>
      <use xlink:href="#CMSS17-73" transform="translate(340.717503 0) scale(0.996264)"/>
      <use xlink:href="#CMSS17-69" transform="translate(376.631045 0) scale(0.996264)"/>
      <use xlink:href="#CMSS17-62" transform="translate(398.811768 0) scale(0.996264)"/>
      <use xlink:href="#CMSS17-6c" transform="translate(447.016711 0) scale(0.996264)"/>
      <use xlink:href="#CMSS17-65" transform="translate(469.197434 0) scale(0.996264)"/>
     </g>
    </g>
   </g>
  </g>
  <g id="text_16">
   <!-- Nodes Analysis -->
   <g transform="translate(193.819563 15.21418) scale(0.12 -0.12)">
    <defs>
     <path id="CMSS17-4e" d="M 1466 4179 
L 1350 4416 
L 563 4416 
L 563 0 
L 1062 0 
L 1062 3925 
L 1069 3931 
C 1114 3817 1139 3759 1402 3193 
L 2771 236 
L 2886 0 
L 3674 0 
L 3674 4416 
L 3174 4416 
L 3174 490 
L 3168 484 
C 3123 598 3098 655 2835 1222 
L 1466 4179 
z
" transform="scale(0.015625)"/>
     <path id="CMSS17-41" d="M 2272 4416 
L 1722 4416 
L 166 0 
L 653 0 
L 1101 1280 
L 2816 1280 
L 3270 0 
L 3827 0 
L 2272 4416 
z
M 2694 1638 
L 1222 1638 
C 1530 2530 1914 3638 1958 3924 
L 1965 3924 
C 2010 3663 2138 3281 2246 2956 
L 2694 1638 
z
" transform="scale(0.015625)"/>
    </defs>
    <use xlink:href="#CMSS17-4e" transform="scale(0.996264)"/>
    <use xlink:href="#CMSS17-6f" transform="translate(66.061519 0) scale(0.996264)"/>
    <use xlink:href="#CMSS17-64" transform="translate(115.507581 0) scale(0.996264)"/>
    <use xlink:href="#CMSS17-65" transform="translate(163.712525 0) scale(0.996264)"/>
    <use xlink:href="#CMSS17-73" transform="translate(205.351347 0) scale(0.996264)"/>
    <use xlink:href="#CMSS17-41" transform="translate(272.494001 0) scale(0.996264)"/>
    <use xlink:href="#CMSS17-6e" transform="translate(334.711856 0) scale(0.996264)"/>
    <use xlink:href="#CMSS17-61" transform="translate(382.916799 0) scale(0.996264)"/>
    <use xlink:href="#CMSS17-6c" transform="translate(427.83872 0) scale(0.996264)"/>
    <use xlink:href="#CMSS17-79" transform="translate(450.019443 0) scale(0.996264)"/>
    <use xlink:href="#CMSS17-73" transform="translate(493.019585 0) scale(0.996264)"/>
    <use xlink:href="#CMSS17-69" transform="translate(528.933127 0) scale(0.996264)"/>
    <use xlink:href="#CMSS17-73" transform="translate(551.11385 0) scale(0.996264)"/>
   </g>
  </g>
  <g id="text_17">
   <!-- Maps -->
   <g transform="translate(219.164325 382.65066) scale(0.1 -0.1)">
    <use xlink:href="#CMSS17-4d" transform="scale(0.996264)"/>
    <use xlink:href="#CMSS17-61" transform="translate(81.67603 0) scale(0.996264)"/>
    <use xlink:href="#CMSS17-70" transform="translate(126.597951 0) scale(0.996264)"/>
    <use xlink:href="#CMSS17-73" transform="translate(174.802894 0) scale(0.996264)"/>
   </g>
  </g>
  <g id="text_18">
   <!-- Nodes Savings -->
   <g transform="translate(11.526498 202.937047) rotate(-90) scale(0.1 -0.1)">
    <defs>
     <path id="CMSS17-53" d="M 2797 4230 
C 2515 4396 2208 4544 1690 4544 
C 864 4544 333 3934 333 3309 
C 333 3064 403 2787 653 2504 
C 902 2220 1184 2143 1542 2053 
C 1690 2014 1939 1943 1984 1924 
C 2342 1782 2515 1454 2515 1144 
C 2515 738 2202 307 1645 307 
C 1453 307 890 339 358 829 
L 269 320 
C 794 -64 1363 -128 1651 -128 
C 2438 -128 3002 494 3002 1202 
C 3002 1460 2925 1789 2656 2092 
C 2394 2381 2163 2446 1638 2588 
C 1338 2665 1146 2717 986 2916 
C 877 3058 819 3193 819 3367 
C 819 3728 1126 4121 1690 4121 
C 1971 4121 2336 4063 2707 3715 
L 2797 4230 
z
" transform="scale(0.015625)"/>
     <path id="CMSS17-76" d="M 2675 2752 
L 2176 2752 
L 1747 1555 
C 1613 1164 1421 627 1389 352 
L 1382 352 
C 1370 467 1318 633 1286 748 
C 1248 889 1197 1056 1158 1171 
L 595 2752 
L 83 2752 
L 1094 0 
L 1664 0 
L 2675 2752 
z
" transform="scale(0.015625)"/>
     <path id="CMSS17-67" d="M 2848 2816 
C 2483 2809 2170 2739 1914 2617 
C 1702 2783 1485 2816 1338 2816 
C 781 2816 358 2356 358 1824 
C 358 1481 550 1222 563 1209 
C 448 1049 384 876 384 684 
C 384 460 474 300 544 211 
C 211 6 166 -308 166 -429 
C 166 -896 749 -1280 1498 -1280 
C 2253 -1280 2835 -896 2835 -423 
C 2835 460 1856 467 1587 467 
L 1069 467 
C 973 467 717 467 717 793 
C 717 921 774 1004 781 1011 
C 877 940 1075 832 1338 832 
C 1869 832 2310 1279 2310 1824 
C 2310 2128 2170 2349 2112 2425 
L 2131 2425 
C 2150 2425 2419 2444 2515 2444 
C 2720 2444 2739 2438 2918 2419 
L 2848 2816 
z
M 1338 1184 
C 1120 1184 813 1317 813 1824 
C 813 2375 1165 2463 1331 2463 
C 1549 2463 1856 2330 1856 1824 
C 1856 1272 1504 1184 1338 1184 
z
M 1581 0 
C 1734 0 2381 0 2381 -436 
C 2381 -711 1984 -928 1504 -928 
C 1018 -928 621 -717 621 -429 
C 621 -397 621 0 1062 0 
L 1581 0 
z
" transform="scale(0.015625)"/>
    </defs>
    <use xlink:href="#CMSS17-4e" transform="scale(0.996264)"/>
    <use xlink:href="#CMSS17-6f" transform="translate(66.061519 0) scale(0.996264)"/>
    <use xlink:href="#CMSS17-64" transform="translate(115.507581 0) scale(0.996264)"/>
    <use xlink:href="#CMSS17-65" transform="translate(163.712525 0) scale(0.996264)"/>
    <use xlink:href="#CMSS17-73" transform="translate(205.351347 0) scale(0.996264)"/>
    <use xlink:href="#CMSS17-53" transform="translate(272.494001 0) scale(0.996264)"/>
    <use xlink:href="#CMSS17-61" transform="translate(324.542518 0) scale(0.996264)"/>
    <use xlink:href="#CMSS17-76" transform="translate(369.464438 0) scale(0.996264)"/>
    <use xlink:href="#CMSS17-69" transform="translate(412.46458 0) scale(0.996264)"/>
    <use xlink:href="#CMSS17-6e" transform="translate(434.645303 0) scale(0.996264)"/>
    <use xlink:href="#CMSS17-67" transform="translate(482.850246 0) scale(0.996264)"/>
    <use xlink:href="#CMSS17-73" transform="translate(529.69387 0) scale(0.996264)"/>
   </g>
  </g>
 </g>
 <defs>
  <clipPath id="pc76f3d78ff">
   <rect x="57.6" y="41.472" width="357.12" height="266.112"/>
  </clipPath>
 </defs>
</svg>
