<?xml version="1.0" encoding="utf-8" standalone="no"?>
<!DOCTYPE svg PUBLIC "-//W3C//DTD SVG 1.1//EN"
  "http://www.w3.org/Graphics/SVG/1.1/DTD/svg11.dtd">
<svg xmlns:xlink="http://www.w3.org/1999/xlink" width="410.688pt" height="381.707838pt" viewBox="0 0 410.688 381.707838" xmlns="http://www.w3.org/2000/svg" version="1.1">
 <metadata>
  <rdf:RDF xmlns:dc="http://purl.org/dc/elements/1.1/" xmlns:cc="http://creativecommons.org/ns#" xmlns:rdf="http://www.w3.org/1999/02/22-rdf-syntax-ns#">
   <cc:Work>
    <dc:type rdf:resource="http://purl.org/dc/dcmitype/StillImage"/>
    <dc:date>2024-09-19T16:39:23.926286</dc:date>
    <dc:format>image/svg+xml</dc:format>
    <dc:creator>
     <cc:Agent>
      <dc:title>Matplotlib v3.8.4, https://matplotlib.org/</dc:title>
     </cc:Agent>
    </dc:creator>
   </cc:Work>
  </rdf:RDF>
 </metadata>
 <defs>
  <style type="text/css">*{stroke-linejoin: round; stroke-linecap: butt}</style>
 </defs>
 <g id="figure_1">
  <g id="patch_1">
   <path d="M -0 381.707838 
L 410.688 381.707838 
L 410.688 0 
L -0 0 
z
" style="fill: #ffffff"/>
  </g>
  <g id="axes_1">
   <g id="patch_2">
    <path d="M 46.368 164.37287 
L 201.637565 164.37287 
L 201.637565 48.672 
L 46.368 48.672 
z
" style="fill: #ffffff"/>
   </g>
   <g id="matplotlib.axis_1">
    <g id="xtick_1">
     <g id="line2d_1">
      <defs>
       <path id="m72d9de0c0d" d="M 0 0 
L 0 3.5 
" style="stroke: #000000; stroke-width: 0.8"/>
      </defs>
      <g>
       <use xlink:href="#m72d9de0c0d" x="65.776696" y="164.37287" style="stroke: #000000; stroke-width: 0.8"/>
      </g>
     </g>
    </g>
    <g id="xtick_2">
     <g id="line2d_2">
      <g>
       <use xlink:href="#m72d9de0c0d" x="104.594087" y="164.37287" style="stroke: #000000; stroke-width: 0.8"/>
      </g>
     </g>
    </g>
    <g id="xtick_3">
     <g id="line2d_3">
      <g>
       <use xlink:href="#m72d9de0c0d" x="143.411478" y="164.37287" style="stroke: #000000; stroke-width: 0.8"/>
      </g>
     </g>
    </g>
    <g id="xtick_4">
     <g id="line2d_4">
      <g>
       <use xlink:href="#m72d9de0c0d" x="182.22887" y="164.37287" style="stroke: #000000; stroke-width: 0.8"/>
      </g>
     </g>
    </g>
   </g>
   <g id="matplotlib.axis_2">
    <g id="ytick_1">
     <g id="line2d_5">
      <path d="M 46.368 159.113739 
L 201.637565 159.113739 
" clip-path="url(#p89ef5de0b5)" style="fill: none; stroke: #b0b0b0; stroke-width: 0.8; stroke-linecap: square"/>
     </g>
     <g id="line2d_6">
      <defs>
       <path id="m9a556abaf4" d="M 0 0 
L -3.5 0 
" style="stroke: #000000; stroke-width: 0.8"/>
      </defs>
      <g>
       <use xlink:href="#m9a556abaf4" x="46.368" y="159.113739" style="stroke: #000000; stroke-width: 0.8"/>
      </g>
     </g>
     <g id="text_1">
      <!-- $\mathdefault{0}$ -->
      <g transform="translate(33.639512 162.572988) scale(0.1 -0.1)">
       <defs>
        <path id="CMBX12-30" d="M 3309 2060 
C 3309 2677 3309 4224 1798 4224 
C 282 4224 282 2683 282 2060 
C 282 1444 282 -64 1792 -64 
C 3302 -64 3309 1424 3309 2060 
z
M 1798 147 
C 1594 147 1440 230 1312 365 
C 1152 526 1050 628 1050 2137 
C 1050 2587 1050 2998 1101 3331 
C 1190 3967 1651 4012 1792 4012 
C 1997 4012 2394 3916 2483 3376 
C 2541 3049 2541 2529 2541 2137 
C 2541 622 2445 532 2253 339 
C 2125 211 1952 147 1798 147 
z
" transform="scale(0.015625)"/>
       </defs>
       <use xlink:href="#CMBX12-30" transform="scale(0.996264)"/>
      </g>
     </g>
    </g>
    <g id="ytick_2">
     <g id="line2d_7">
      <path d="M 46.368 117.040696 
L 201.637565 117.040696 
" clip-path="url(#p89ef5de0b5)" style="fill: none; stroke: #b0b0b0; stroke-width: 0.8; stroke-linecap: square"/>
     </g>
     <g id="line2d_8">
      <g>
       <use xlink:href="#m9a556abaf4" x="46.368" y="117.040696" style="stroke: #000000; stroke-width: 0.8"/>
      </g>
     </g>
     <g id="text_2">
      <!-- $\mathdefault{2}$ -->
      <g transform="translate(33.639512 120.499945) scale(0.1 -0.1)">
       <defs>
        <path id="CMBX12-32" d="M 3232 1378 
L 2963 1378 
C 2944 1243 2899 864 2803 800 
C 2752 755 2253 755 2157 755 
L 1165 755 
C 1408 960 1990 1448 2086 1519 
C 2797 2052 3232 2379 3232 2995 
C 3232 3759 2547 4224 1702 4224 
C 979 4224 358 3806 358 3187 
C 358 2848 634 2752 781 2752 
C 979 2752 1210 2886 1210 3180 
C 1210 3449 1011 3584 813 3610 
C 1069 3921 1408 3948 1542 3948 
C 2131 3948 2413 3449 2413 2988 
C 2413 2488 2074 2026 1811 1750 
L 422 294 
C 358 236 358 224 358 108 
L 358 0 
L 3046 0 
L 3232 1378 
z
" transform="scale(0.015625)"/>
       </defs>
       <use xlink:href="#CMBX12-32" transform="scale(0.996264)"/>
      </g>
     </g>
    </g>
    <g id="ytick_3">
     <g id="line2d_9">
      <path d="M 46.368 74.967652 
L 201.637565 74.967652 
" clip-path="url(#p89ef5de0b5)" style="fill: none; stroke: #b0b0b0; stroke-width: 0.8; stroke-linecap: square"/>
     </g>
     <g id="line2d_10">
      <g>
       <use xlink:href="#m9a556abaf4" x="46.368" y="74.967652" style="stroke: #000000; stroke-width: 0.8"/>
      </g>
     </g>
     <g id="text_3">
      <!-- $\mathdefault{4}$ -->
      <g transform="translate(33.639512 78.426901) scale(0.1 -0.1)">
       <defs>
        <path id="CMBX12-34" d="M 2771 1004 
L 3392 1004 
L 3392 1280 
L 2771 1280 
L 2771 4038 
C 2771 4198 2765 4224 2605 4224 
C 2490 4224 2477 4224 2400 4127 
L 198 1280 
L 198 1004 
L 2016 1004 
L 2016 275 
L 1318 275 
L 1318 0 
C 1504 12 2138 12 2368 12 
C 2586 12 3219 12 3392 0 
L 3392 275 
L 2771 275 
L 2771 1004 
z
M 2074 3324 
L 2074 1280 
L 493 1280 
L 2074 3324 
z
" transform="scale(0.015625)"/>
       </defs>
       <use xlink:href="#CMBX12-34" transform="scale(0.996264)"/>
      </g>
     </g>
    </g>
   </g>
   <g id="patch_3">
    <path d="M 57.042783 159.113739 
L 74.510609 159.113739 
L 74.510609 96.004174 
L 57.042783 96.004174 
L 57.042783 159.113739 
z
" clip-path="url(#p89ef5de0b5)" style="fill: #ffc0cb; stroke: #000000; stroke-linejoin: miter"/>
   </g>
   <g id="line2d_11">
    <path d="M 65.776696 159.113739 
L 65.776696 159.113739 
" clip-path="url(#p89ef5de0b5)" style="fill: none; stroke: #000000; stroke-linecap: square"/>
   </g>
   <g id="line2d_12">
    <path d="M 65.776696 96.004174 
L 65.776696 53.93113 
" clip-path="url(#p89ef5de0b5)" style="fill: none; stroke: #000000; stroke-linecap: square"/>
   </g>
   <g id="line2d_13">
    <path d="M 61.409739 159.113739 
L 70.143652 159.113739 
" clip-path="url(#p89ef5de0b5)" style="fill: none; stroke: #000000; stroke-linecap: square"/>
   </g>
   <g id="line2d_14">
    <path d="M 61.409739 53.93113 
L 70.143652 53.93113 
" clip-path="url(#p89ef5de0b5)" style="fill: none; stroke: #000000; stroke-linecap: square"/>
   </g>
   <g id="line2d_15"/>
   <g id="patch_4">
    <path d="M 95.860174 138.077217 
L 113.328 138.077217 
L 113.328 74.967652 
L 95.860174 74.967652 
L 95.860174 138.077217 
z
" clip-path="url(#p89ef5de0b5)" style="fill: #add8e6; stroke: #000000; stroke-linejoin: miter"/>
   </g>
   <g id="line2d_16">
    <path d="M 104.594087 138.077217 
L 104.594087 159.113739 
" clip-path="url(#p89ef5de0b5)" style="fill: none; stroke: #000000; stroke-linecap: square"/>
   </g>
   <g id="line2d_17">
    <path d="M 104.594087 74.967652 
L 104.594087 53.93113 
" clip-path="url(#p89ef5de0b5)" style="fill: none; stroke: #000000; stroke-linecap: square"/>
   </g>
   <g id="line2d_18">
    <path d="M 100.22713 159.113739 
L 108.961043 159.113739 
" clip-path="url(#p89ef5de0b5)" style="fill: none; stroke: #000000; stroke-linecap: square"/>
   </g>
   <g id="line2d_19">
    <path d="M 100.22713 53.93113 
L 108.961043 53.93113 
" clip-path="url(#p89ef5de0b5)" style="fill: none; stroke: #000000; stroke-linecap: square"/>
   </g>
   <g id="line2d_20"/>
   <g id="patch_5">
    <path d="M 134.677565 117.040696 
L 152.145391 117.040696 
L 152.145391 74.967652 
L 134.677565 74.967652 
L 134.677565 117.040696 
z
" clip-path="url(#p89ef5de0b5)" style="fill: #90ee90; stroke: #000000; stroke-linejoin: miter"/>
   </g>
   <g id="line2d_21">
    <path d="M 143.411478 117.040696 
L 143.411478 159.113739 
" clip-path="url(#p89ef5de0b5)" style="fill: none; stroke: #000000; stroke-linecap: square"/>
   </g>
   <g id="line2d_22">
    <path d="M 143.411478 74.967652 
L 143.411478 53.93113 
" clip-path="url(#p89ef5de0b5)" style="fill: none; stroke: #000000; stroke-linecap: square"/>
   </g>
   <g id="line2d_23">
    <path d="M 139.044522 159.113739 
L 147.778435 159.113739 
" clip-path="url(#p89ef5de0b5)" style="fill: none; stroke: #000000; stroke-linecap: square"/>
   </g>
   <g id="line2d_24">
    <path d="M 139.044522 53.93113 
L 147.778435 53.93113 
" clip-path="url(#p89ef5de0b5)" style="fill: none; stroke: #000000; stroke-linecap: square"/>
   </g>
   <g id="line2d_25"/>
   <g id="patch_6">
    <path d="M 173.494957 96.004174 
L 190.962783 96.004174 
L 190.962783 74.967652 
L 173.494957 74.967652 
L 173.494957 96.004174 
z
" clip-path="url(#p89ef5de0b5)" style="fill: #ffa500; stroke: #000000; stroke-linejoin: miter"/>
   </g>
   <g id="line2d_26">
    <path d="M 182.22887 96.004174 
L 182.22887 117.040696 
" clip-path="url(#p89ef5de0b5)" style="fill: none; stroke: #000000; stroke-linecap: square"/>
   </g>
   <g id="line2d_27">
    <path d="M 182.22887 74.967652 
L 182.22887 53.93113 
" clip-path="url(#p89ef5de0b5)" style="fill: none; stroke: #000000; stroke-linecap: square"/>
   </g>
   <g id="line2d_28">
    <path d="M 177.861913 117.040696 
L 186.595826 117.040696 
" clip-path="url(#p89ef5de0b5)" style="fill: none; stroke: #000000; stroke-linecap: square"/>
   </g>
   <g id="line2d_29">
    <path d="M 177.861913 53.93113 
L 186.595826 53.93113 
" clip-path="url(#p89ef5de0b5)" style="fill: none; stroke: #000000; stroke-linecap: square"/>
   </g>
   <g id="line2d_30">
    <defs>
     <path id="m694333326f" d="M 0 3 
C 0.795609 3 1.55874 2.683901 2.12132 2.12132 
C 2.683901 1.55874 3 0.795609 3 0 
C 3 -0.795609 2.683901 -1.55874 2.12132 -2.12132 
C 1.55874 -2.683901 0.795609 -3 0 -3 
C -0.795609 -3 -1.55874 -2.683901 -2.12132 -2.12132 
C -2.683901 -1.55874 -3 -0.795609 -3 0 
C -3 0.795609 -2.683901 1.55874 -2.12132 2.12132 
C -1.55874 2.683901 -0.795609 3 0 3 
z
" style="stroke: #000000"/>
    </defs>
    <g clip-path="url(#p89ef5de0b5)">
     <use xlink:href="#m694333326f" x="182.22887" y="138.077217" style="fill-opacity: 0; stroke: #000000"/>
     <use xlink:href="#m694333326f" x="182.22887" y="138.077217" style="fill-opacity: 0; stroke: #000000"/>
    </g>
   </g>
   <g id="line2d_31">
    <path d="M 57.042783 138.077217 
L 74.510609 138.077217 
" clip-path="url(#p89ef5de0b5)" style="fill: none; stroke: #ff7f0e"/>
   </g>
   <g id="line2d_32">
    <path d="M 95.860174 96.004174 
L 113.328 96.004174 
" clip-path="url(#p89ef5de0b5)" style="fill: none; stroke: #ff7f0e"/>
   </g>
   <g id="line2d_33">
    <path d="M 134.677565 96.004174 
L 152.145391 96.004174 
" clip-path="url(#p89ef5de0b5)" style="fill: none; stroke: #ff7f0e"/>
   </g>
   <g id="line2d_34">
    <path d="M 173.494957 74.967652 
L 190.962783 74.967652 
" clip-path="url(#p89ef5de0b5)" style="fill: none; stroke: #ff7f0e"/>
   </g>
   <g id="patch_7">
    <path d="M 46.368 164.37287 
L 46.368 48.672 
" style="fill: none; stroke: #000000; stroke-width: 0.8; stroke-linejoin: miter; stroke-linecap: square"/>
   </g>
   <g id="patch_8">
    <path d="M 201.637565 164.37287 
L 201.637565 48.672 
" style="fill: none; stroke: #000000; stroke-width: 0.8; stroke-linejoin: miter; stroke-linecap: square"/>
   </g>
   <g id="patch_9">
    <path d="M 46.368 164.37287 
L 201.637565 164.37287 
" style="fill: none; stroke: #000000; stroke-width: 0.8; stroke-linejoin: miter; stroke-linecap: square"/>
   </g>
   <g id="patch_10">
    <path d="M 46.368 48.672 
L 201.637565 48.672 
" style="fill: none; stroke: #000000; stroke-width: 0.8; stroke-linejoin: miter; stroke-linecap: square"/>
   </g>
   <g id="text_4">
    <!-- Empty (16x16)  -->
    <g transform="translate(92.744931 31.214964) scale(0.1 -0.1)">
     <defs>
      <path id="CMSS17-45" d="M 1958 435 
C 1446 435 1216 435 1101 428 
L 1101 2105 
L 3085 2105 
L 3085 2496 
L 1101 2496 
L 1101 3993 
L 1926 3993 
C 2003 3993 2080 3987 2157 3987 
L 3251 3987 
L 3251 4403 
L 563 4403 
L 563 0 
L 3334 0 
L 3334 441 
L 1958 435 
z
" transform="scale(0.015625)"/>
      <path id="CMSS17-6d" d="M 4288 1878 
C 4288 2309 4179 2816 3462 2816 
C 2982 2816 2694 2515 2566 2328 
C 2451 2668 2182 2816 1798 2816 
C 1363 2816 1088 2566 941 2386 
L 941 2783 
L 474 2783 
L 474 0 
L 960 0 
L 960 1556 
C 960 1936 1101 2425 1555 2425 
C 2138 2425 2138 2013 2138 1826 
L 2138 0 
L 2624 0 
L 2624 1556 
C 2624 1936 2765 2425 3219 2425 
C 3802 2425 3802 2013 3802 1826 
L 3802 0 
L 4288 0 
L 4288 1878 
z
" transform="scale(0.015625)"/>
      <path id="CMSS17-70" d="M 966 275 
C 1178 70 1466 -64 1773 -64 
C 2368 -64 2880 553 2880 1382 
C 2880 2147 2496 2816 1946 2816 
C 1626 2816 1242 2700 954 2470 
L 954 2764 
L 480 2764 
L 480 -1280 
L 966 -1280 
L 966 275 
z
M 966 2088 
C 1018 2166 1235 2412 1587 2412 
C 2035 2412 2394 1946 2394 1382 
C 2394 741 1958 326 1530 326 
C 1402 326 1267 358 1139 468 
C 966 624 966 721 966 812 
L 966 2088 
z
" transform="scale(0.015625)"/>
      <path id="CMSS17-74" d="M 1069 2380 
L 1901 2380 
L 1901 2752 
L 1069 2752 
L 1069 3520 
L 614 3520 
L 614 2752 
L 109 2752 
L 109 2380 
L 602 2380 
L 602 751 
C 602 384 685 -64 1107 -64 
C 1427 -64 1722 25 2003 172 
L 1901 551 
C 1747 416 1562 339 1363 339 
C 1082 339 1069 699 1069 860 
L 1069 2380 
z
" transform="scale(0.015625)"/>
      <path id="CMSS17-79" d="M 2675 2752 
L 2176 2752 
C 1632 1293 1446 701 1434 383 
L 1427 383 
C 1408 695 1126 1459 902 2006 
L 602 2752 
L 83 2752 
L 1216 14 
C 1146 -177 1043 -464 1011 -527 
C 870 -884 774 -884 672 -884 
C 646 -884 442 -877 211 -807 
L 250 -1229 
C 410 -1261 570 -1280 685 -1280 
C 845 -1280 1165 -1280 1459 -495 
L 2675 2752 
z
" transform="scale(0.015625)"/>
      <path id="CMSS17-28" d="M 1613 4800 
C 1267 4447 474 3627 474 1603 
C 474 -428 1267 -1242 1613 -1600 
L 2003 -1600 
C 1216 -781 960 366 960 1596 
C 960 2820 1203 3973 2003 4800 
L 1613 4800 
z
" transform="scale(0.015625)"/>
      <path id="CMSS17-31" d="M 1818 4288 
L 1696 4288 
C 1350 3949 947 3902 538 3891 
L 538 3520 
C 723 3526 1024 3539 1325 3673 
L 1325 371 
L 570 371 
L 570 0 
L 2573 0 
L 2573 371 
L 1818 371 
L 1818 4288 
z
" transform="scale(0.015625)"/>
      <path id="CMSS17-36" d="M 2496 4159 
C 2227 4268 2035 4288 1856 4288 
C 1024 4288 250 3408 250 2023 
C 250 268 986 -128 1510 -128 
C 1798 -128 2086 -39 2362 281 
C 2643 619 2752 900 2752 1392 
C 2752 2183 2362 2886 1779 2886 
C 1357 2886 992 2662 768 2381 
C 832 3290 1254 3897 1862 3897 
C 2029 3897 2246 3871 2496 3760 
L 2496 4159 
z
M 774 1372 
C 774 1423 774 1455 781 1551 
C 781 2049 1069 2496 1536 2496 
C 1837 2496 1990 2336 2106 2138 
C 2240 1889 2246 1653 2246 1392 
C 2246 1143 2246 894 2099 638 
C 1978 441 1818 268 1510 268 
C 902 268 800 1117 774 1372 
z
" transform="scale(0.015625)"/>
      <path id="CMSS17-78" d="M 1587 1420 
L 2656 2752 
L 2099 2752 
L 1363 1785 
L 602 2752 
L 32 2752 
L 1139 1420 
L 0 0 
L 563 0 
L 1363 1126 
L 2195 0 
L 2758 0 
L 1587 1420 
z
" transform="scale(0.015625)"/>
      <path id="CMSS17-29" d="M 723 -1600 
C 1069 -1248 1862 -428 1862 1596 
C 1862 3627 1069 4440 723 4800 
L 333 4800 
C 1120 3979 1376 2833 1376 1603 
C 1376 379 1133 -774 333 -1600 
L 723 -1600 
z
" transform="scale(0.015625)"/>
     </defs>
     <use xlink:href="#CMSS17-45" transform="scale(0.996264)"/>
     <use xlink:href="#CMSS17-6d" transform="translate(55.892013 0) scale(0.996264)"/>
     <use xlink:href="#CMSS17-70" transform="translate(130.121268 0) scale(0.996264)"/>
     <use xlink:href="#CMSS17-74" transform="translate(178.326211 0) scale(0.996264)"/>
     <use xlink:href="#CMSS17-79" transform="translate(209.555324 0) scale(0.996264)"/>
     <use xlink:href="#CMSS17-28" transform="translate(283.784578 0) scale(0.996264)"/>
     <use xlink:href="#CMSS17-31" transform="translate(320.218492 0) scale(0.996264)"/>
     <use xlink:href="#CMSS17-36" transform="translate(367.062116 0) scale(0.996264)"/>
     <use xlink:href="#CMSS17-78" transform="translate(413.905739 0) scale(0.996264)"/>
     <use xlink:href="#CMSS17-31" transform="translate(456.905881 0) scale(0.996264)"/>
     <use xlink:href="#CMSS17-36" transform="translate(503.749504 0) scale(0.996264)"/>
     <use xlink:href="#CMSS17-29" transform="translate(550.593128 0) scale(0.996264)"/>
    </g>
    <!-- $|A| = 3, N = 5, H = 50$ -->
    <g transform="translate(66.420407 42.672) scale(0.1 -0.1)">
     <defs>
      <path id="CMBSY10-6a" d="M 1216 4512 
C 1216 4608 1216 4800 1024 4800 
C 826 4800 826 4614 826 4512 
L 826 -1312 
C 826 -1408 826 -1600 1018 -1600 
C 1216 -1600 1216 -1415 1216 -1312 
L 1216 4512 
z
" transform="scale(0.015625)"/>
      <path id="CMMIB10-41" d="M 4128 4358 
C 4102 4518 4070 4544 3910 4544 
C 3770 4544 3718 4518 3629 4384 
L 1114 547 
C 1037 424 960 307 493 300 
C 403 300 288 300 288 115 
C 288 64 333 0 410 0 
C 602 0 819 19 1018 19 
C 1254 19 1498 0 1728 0 
C 1773 0 1901 0 1901 185 
C 1901 300 1786 300 1734 300 
C 1683 300 1504 300 1363 372 
L 1952 1280 
L 3680 1280 
L 3827 333 
C 3706 307 3507 300 3411 300 
C 3283 300 3174 300 3174 115 
C 3174 32 3245 0 3315 0 
C 3526 0 4058 19 4269 19 
C 4416 19 4563 12 4710 12 
C 4858 12 5011 0 5158 0 
C 5216 0 5338 0 5338 185 
C 5338 300 5242 300 5082 300 
C 4992 300 4922 300 4832 307 
C 4755 313 4749 320 4730 430 
L 4128 4358 
z
M 3354 3411 
L 3635 1580 
L 2150 1580 
L 3354 3411 
z
" transform="scale(0.015625)"/>
      <path id="CMBX12-3d" d="M 4934 2112 
C 5030 2112 5197 2112 5197 2291 
C 5197 2464 5024 2464 4941 2464 
L 653 2464 
C 570 2464 397 2464 397 2291 
C 397 2112 563 2112 659 2112 
L 4934 2112 
z
M 4941 735 
C 5024 735 5197 735 5197 908 
C 5197 1088 5030 1088 4934 1088 
L 659 1088 
C 563 1088 397 1088 397 908 
C 397 735 570 735 653 735 
L 4941 735 
z
" transform="scale(0.015625)"/>
      <path id="CMBX12-33" d="M 1670 2143 
C 2387 2143 2387 1473 2387 1164 
C 2387 876 2387 192 1696 192 
C 1562 192 1139 211 832 434 
C 1107 492 1203 691 1203 883 
C 1203 1145 1018 1331 755 1331 
C 486 1331 301 1145 301 876 
C 301 283 941 -64 1728 -64 
C 2784 -64 3290 524 3290 1164 
C 3290 1479 3130 2092 2138 2265 
C 2701 2436 3091 2824 3091 3327 
C 3091 3812 2630 4224 1741 4224 
C 1024 4224 499 3839 499 3315 
C 499 2995 749 2892 915 2892 
C 1101 2892 1325 3014 1325 3308 
C 1325 3455 1261 3673 960 3718 
C 1229 3993 1664 3993 1702 3993 
C 2272 3993 2272 3539 2272 3347 
C 2272 3155 2246 2861 2042 2605 
C 1875 2392 1709 2380 1466 2368 
C 1389 2361 1261 2355 1235 2342 
C 1197 2323 1197 2278 1197 2252 
C 1197 2143 1235 2143 1363 2143 
L 1670 2143 
z
" transform="scale(0.015625)"/>
      <path id="CMMIB10-3b" d="M 1370 134 
C 1350 -263 1158 -688 806 -976 
C 717 -1051 710 -1057 710 -1095 
C 710 -1140 781 -1216 832 -1216 
C 922 -1216 1600 -669 1600 198 
C 1600 646 1370 998 1011 998 
C 717 998 518 774 518 499 
C 518 243 698 0 1018 0 
C 1171 0 1293 64 1370 134 
z
" transform="scale(0.015625)"/>
      <path id="CMMIB10-4e" d="M 5792 3915 
C 5824 4037 5824 4044 5978 4083 
C 6086 4102 6246 4115 6349 4115 
C 6464 4115 6573 4115 6573 4300 
C 6573 4358 6528 4416 6445 4416 
C 6214 4416 5971 4396 5734 4396 
C 5574 4396 5165 4416 5005 4416 
C 4960 4416 4832 4416 4832 4230 
C 4832 4115 4941 4115 5030 4115 
C 5088 4115 5325 4115 5478 4050 
L 4787 1273 
L 2982 4307 
C 2918 4416 2899 4416 2746 4416 
L 1536 4416 
C 1408 4416 1299 4416 1299 4230 
C 1299 4115 1402 4115 1517 4115 
L 1670 4115 
C 1952 4115 1952 4102 1952 4083 
C 1952 4057 1939 4018 1933 3992 
L 1062 507 
C 1030 378 1030 371 870 339 
C 717 300 525 300 506 300 
C 384 300 275 300 275 115 
C 275 96 288 0 403 0 
C 634 0 877 19 1114 19 
C 1274 19 1683 0 1843 0 
C 1888 0 2016 0 2016 185 
C 2016 300 1901 300 1818 300 
C 1760 300 1530 300 1376 365 
L 2246 3876 
L 4480 115 
C 4550 0 4576 0 4672 0 
C 4813 0 4819 25 4851 153 
L 5792 3915 
z
" transform="scale(0.015625)"/>
      <path id="CMBX12-35" d="M 986 3359 
C 1203 3308 1376 3308 1472 3308 
C 1626 3308 1990 3308 2419 3571 
C 2618 3692 2950 3980 2950 4115 
C 2950 4147 2950 4224 2874 4224 
C 2867 4224 2854 4224 2790 4191 
C 2496 4090 2182 4032 1824 4032 
C 1459 4032 1152 4090 851 4198 
C 806 4211 787 4224 768 4224 
C 691 4224 691 4159 691 4058 
L 691 2179 
C 691 2055 691 1984 819 1984 
C 883 1984 896 1991 947 2055 
C 1024 2146 1254 2432 1798 2432 
C 2387 2432 2387 1822 2387 1312 
C 2387 851 2387 192 1600 192 
C 1363 192 960 280 742 640 
C 1082 640 1165 896 1165 1036 
C 1165 1267 998 1440 762 1440 
C 570 1440 358 1324 358 1024 
C 358 469 864 -64 1626 -64 
C 2611 -64 3232 501 3232 1292 
C 3232 2081 2701 2643 1824 2643 
C 1568 2643 1261 2592 986 2386 
L 986 3359 
z
" transform="scale(0.015625)"/>
      <path id="CMMIB10-48" d="M 5830 4089 
C 5971 4115 6195 4115 6266 4115 
C 6349 4115 6477 4115 6502 4134 
C 6566 4179 6573 4294 6573 4300 
C 6573 4383 6509 4416 6432 4416 
C 6272 4416 6106 4403 5946 4403 
C 5786 4403 5626 4396 5466 4396 
C 5299 4396 5133 4403 4973 4403 
C 4806 4403 4634 4416 4467 4416 
C 4410 4416 4282 4416 4282 4230 
C 4282 4115 4365 4115 4550 4115 
C 4685 4115 4806 4108 4941 4102 
L 4531 2432 
L 2445 2432 
L 2848 4089 
C 2989 4115 3213 4115 3283 4115 
C 3366 4115 3494 4115 3520 4134 
C 3584 4179 3590 4294 3590 4300 
C 3590 4383 3526 4416 3450 4416 
C 3290 4416 3123 4403 2963 4403 
C 2803 4403 2643 4396 2483 4396 
C 2317 4396 2150 4403 1990 4403 
C 1824 4403 1651 4416 1485 4416 
C 1427 4416 1299 4416 1299 4230 
C 1299 4115 1382 4115 1568 4115 
C 1702 4115 1824 4108 1958 4102 
L 1043 428 
C 1018 326 1011 320 896 307 
C 787 300 659 300 557 300 
C 390 300 378 300 352 288 
C 275 243 275 140 275 115 
C 275 108 275 0 416 0 
C 576 0 742 12 902 12 
C 1062 12 1229 19 1389 19 
C 1555 19 1722 12 1882 12 
C 2048 12 2221 0 2381 0 
C 2445 0 2496 0 2528 44 
C 2554 83 2566 172 2566 185 
C 2566 300 2477 300 2304 300 
C 2170 300 2048 307 1914 313 
L 2368 2131 
L 4454 2131 
L 4026 428 
C 4000 326 3994 320 3878 307 
C 3770 300 3642 300 3539 300 
C 3373 300 3360 300 3334 288 
C 3258 243 3258 140 3258 115 
C 3258 108 3258 0 3398 0 
C 3558 0 3725 12 3885 12 
C 4045 12 4211 19 4371 19 
C 4538 19 4704 12 4864 12 
C 5030 12 5203 0 5363 0 
C 5427 0 5478 0 5510 44 
C 5536 83 5549 172 5549 185 
C 5549 300 5459 300 5286 300 
C 5152 300 5030 307 4896 313 
L 5830 4089 
z
" transform="scale(0.015625)"/>
     </defs>
     <use xlink:href="#CMBSY10-6a" transform="scale(0.996264)"/>
     <use xlink:href="#CMMIB10-41" transform="translate(31.824931 0) scale(0.996264)"/>
     <use xlink:href="#CMBSY10-6a" transform="translate(118.44411 0) scale(0.996264)"/>
     <use xlink:href="#CMBX12-3d" transform="translate(182.093973 0) scale(0.996264)"/>
     <use xlink:href="#CMBX12-33" transform="translate(301.092005 0) scale(0.996264)"/>
     <use xlink:href="#CMMIB10-3b" transform="translate(357.131855 0) scale(0.996264)"/>
     <use xlink:href="#CMMIB10-4e" transform="translate(408.051746 0) scale(0.996264)"/>
     <use xlink:href="#CMBX12-3d" transform="translate(545.936928 0) scale(0.996264)"/>
     <use xlink:href="#CMBX12-35" transform="translate(664.934961 0) scale(0.996264)"/>
     <use xlink:href="#CMMIB10-3b" transform="translate(720.974811 0) scale(0.996264)"/>
     <use xlink:href="#CMMIB10-48" transform="translate(771.894702 0) scale(0.996264)"/>
     <use xlink:href="#CMBX12-3d" transform="translate(909.779884 0) scale(0.996264)"/>
     <use xlink:href="#CMBX12-35" transform="translate(1028.777917 0) scale(0.996264)"/>
     <use xlink:href="#CMBX12-30" transform="translate(1084.817767 0) scale(0.996264)"/>
    </g>
   </g>
  </g>
  <g id="axes_2">
   <g id="patch_11">
    <path d="M 248.218435 164.37287 
L 403.488 164.37287 
L 403.488 48.672 
L 248.218435 48.672 
z
" style="fill: #ffffff"/>
   </g>
   <g id="matplotlib.axis_3">
    <g id="xtick_5">
     <g id="line2d_35">
      <g>
       <use xlink:href="#m72d9de0c0d" x="267.62713" y="164.37287" style="stroke: #000000; stroke-width: 0.8"/>
      </g>
     </g>
    </g>
    <g id="xtick_6">
     <g id="line2d_36">
      <g>
       <use xlink:href="#m72d9de0c0d" x="306.444522" y="164.37287" style="stroke: #000000; stroke-width: 0.8"/>
      </g>
     </g>
    </g>
    <g id="xtick_7">
     <g id="line2d_37">
      <g>
       <use xlink:href="#m72d9de0c0d" x="345.261913" y="164.37287" style="stroke: #000000; stroke-width: 0.8"/>
      </g>
     </g>
    </g>
    <g id="xtick_8">
     <g id="line2d_38">
      <g>
       <use xlink:href="#m72d9de0c0d" x="384.079304" y="164.37287" style="stroke: #000000; stroke-width: 0.8"/>
      </g>
     </g>
    </g>
   </g>
   <g id="matplotlib.axis_4">
    <g id="ytick_4">
     <g id="line2d_39">
      <path d="M 248.218435 159.113739 
L 403.488 159.113739 
" clip-path="url(#pa19faf2950)" style="fill: none; stroke: #b0b0b0; stroke-width: 0.8; stroke-linecap: square"/>
     </g>
     <g id="line2d_40">
      <g>
       <use xlink:href="#m9a556abaf4" x="248.218435" y="159.113739" style="stroke: #000000; stroke-width: 0.8"/>
      </g>
     </g>
     <g id="text_5">
      <!-- $\mathdefault{0.0}$ -->
      <g transform="translate(226.578966 162.572988) scale(0.1 -0.1)">
       <defs>
        <path id="CMMIB10-3a" d="M 1517 499 
C 1517 774 1293 998 1018 998 
C 742 998 518 774 518 499 
C 518 224 742 0 1018 0 
C 1293 0 1517 224 1517 499 
z
" transform="scale(0.015625)"/>
       </defs>
       <use xlink:href="#CMBX12-30" transform="scale(0.996264)"/>
       <use xlink:href="#CMMIB10-3a" transform="translate(56.039851 0) scale(0.996264)"/>
       <use xlink:href="#CMBX12-30" transform="translate(87.864782 0) scale(0.996264)"/>
      </g>
     </g>
    </g>
    <g id="ytick_5">
     <g id="line2d_41">
      <path d="M 248.218435 132.818087 
L 403.488 132.818087 
" clip-path="url(#pa19faf2950)" style="fill: none; stroke: #b0b0b0; stroke-width: 0.8; stroke-linecap: square"/>
     </g>
     <g id="line2d_42">
      <g>
       <use xlink:href="#m9a556abaf4" x="248.218435" y="132.818087" style="stroke: #000000; stroke-width: 0.8"/>
      </g>
     </g>
     <g id="text_6">
      <!-- $\mathdefault{2.5}$ -->
      <g transform="translate(226.578966 136.277336) scale(0.1 -0.1)">
       <use xlink:href="#CMBX12-32" transform="scale(0.996264)"/>
       <use xlink:href="#CMMIB10-3a" transform="translate(56.039851 0) scale(0.996264)"/>
       <use xlink:href="#CMBX12-35" transform="translate(87.864782 0) scale(0.996264)"/>
      </g>
     </g>
    </g>
    <g id="ytick_6">
     <g id="line2d_43">
      <path d="M 248.218435 106.522435 
L 403.488 106.522435 
" clip-path="url(#pa19faf2950)" style="fill: none; stroke: #b0b0b0; stroke-width: 0.8; stroke-linecap: square"/>
     </g>
     <g id="line2d_44">
      <g>
       <use xlink:href="#m9a556abaf4" x="248.218435" y="106.522435" style="stroke: #000000; stroke-width: 0.8"/>
      </g>
     </g>
     <g id="text_7">
      <!-- $\mathdefault{5.0}$ -->
      <g transform="translate(226.578966 109.981684) scale(0.1 -0.1)">
       <use xlink:href="#CMBX12-35" transform="scale(0.996264)"/>
       <use xlink:href="#CMMIB10-3a" transform="translate(56.039851 0) scale(0.996264)"/>
       <use xlink:href="#CMBX12-30" transform="translate(87.864782 0) scale(0.996264)"/>
      </g>
     </g>
    </g>
    <g id="ytick_7">
     <g id="line2d_45">
      <path d="M 248.218435 80.226783 
L 403.488 80.226783 
" clip-path="url(#pa19faf2950)" style="fill: none; stroke: #b0b0b0; stroke-width: 0.8; stroke-linecap: square"/>
     </g>
     <g id="line2d_46">
      <g>
       <use xlink:href="#m9a556abaf4" x="248.218435" y="80.226783" style="stroke: #000000; stroke-width: 0.8"/>
      </g>
     </g>
     <g id="text_8">
      <!-- $\mathdefault{7.5}$ -->
      <g transform="translate(226.578966 83.686032) scale(0.1 -0.1)">
       <defs>
        <path id="CMBX12-37" d="M 3430 3859 
C 3488 3923 3488 3936 3488 4147 
L 2138 4147 
C 2093 4147 1139 4179 1062 4192 
C 902 4217 890 4287 877 4352 
L 608 4352 
L 397 2768 
L 666 2768 
C 672 2833 723 3282 832 3353 
C 890 3392 1421 3392 1523 3392 
L 2682 3392 
C 1939 2486 1856 2383 1658 2004 
C 1280 1258 1222 680 1222 365 
C 1222 -64 1549 -64 1600 -64 
C 1760 -64 1850 19 1894 64 
C 1978 166 1978 243 1978 526 
C 1978 1509 2067 2229 2470 2711 
L 3430 3859 
z
" transform="scale(0.015625)"/>
       </defs>
       <use xlink:href="#CMBX12-37" transform="scale(0.996264)"/>
       <use xlink:href="#CMMIB10-3a" transform="translate(56.039851 0) scale(0.996264)"/>
       <use xlink:href="#CMBX12-35" transform="translate(87.864782 0) scale(0.996264)"/>
      </g>
     </g>
    </g>
    <g id="ytick_8">
     <g id="line2d_47">
      <path d="M 248.218435 53.93113 
L 403.488 53.93113 
" clip-path="url(#pa19faf2950)" style="fill: none; stroke: #b0b0b0; stroke-width: 0.8; stroke-linecap: square"/>
     </g>
     <g id="line2d_48">
      <g>
       <use xlink:href="#m9a556abaf4" x="248.218435" y="53.93113" style="stroke: #000000; stroke-width: 0.8"/>
      </g>
     </g>
     <g id="text_9">
      <!-- $\mathdefault{10.0}$ -->
      <g transform="translate(220.850479 57.39038) scale(0.1 -0.1)">
       <defs>
        <path id="CMBX12-31" d="M 2214 4034 
C 2214 4224 2202 4224 1997 4224 
C 1523 3795 813 3795 672 3795 
L 550 3795 
L 550 3520 
L 672 3520 
C 896 3520 1235 3558 1491 3641 
L 1491 275 
L 602 275 
L 602 0 
C 870 12 1542 12 1843 12 
C 2144 12 2822 12 3091 0 
L 3091 275 
L 2214 275 
L 2214 4034 
z
" transform="scale(0.015625)"/>
       </defs>
       <use xlink:href="#CMBX12-31" transform="scale(0.996264)"/>
       <use xlink:href="#CMBX12-30" transform="translate(56.039851 0) scale(0.996264)"/>
       <use xlink:href="#CMMIB10-3a" transform="translate(112.079701 0) scale(0.996264)"/>
       <use xlink:href="#CMBX12-30" transform="translate(143.904633 0) scale(0.996264)"/>
      </g>
     </g>
    </g>
   </g>
   <g id="patch_12">
    <path d="M 258.893217 159.113739 
L 276.361043 159.113739 
L 276.361043 138.077217 
L 258.893217 138.077217 
L 258.893217 159.113739 
z
" clip-path="url(#pa19faf2950)" style="fill: #ffc0cb; stroke: #000000; stroke-linejoin: miter"/>
   </g>
   <g id="line2d_49">
    <path d="M 267.62713 159.113739 
L 267.62713 159.113739 
" clip-path="url(#pa19faf2950)" style="fill: none; stroke: #000000; stroke-linecap: square"/>
   </g>
   <g id="line2d_50">
    <path d="M 267.62713 138.077217 
L 267.62713 106.522435 
" clip-path="url(#pa19faf2950)" style="fill: none; stroke: #000000; stroke-linecap: square"/>
   </g>
   <g id="line2d_51">
    <path d="M 263.260174 159.113739 
L 271.994087 159.113739 
" clip-path="url(#pa19faf2950)" style="fill: none; stroke: #000000; stroke-linecap: square"/>
   </g>
   <g id="line2d_52">
    <path d="M 263.260174 106.522435 
L 271.994087 106.522435 
" clip-path="url(#pa19faf2950)" style="fill: none; stroke: #000000; stroke-linecap: square"/>
   </g>
   <g id="line2d_53">
    <g clip-path="url(#pa19faf2950)">
     <use xlink:href="#m694333326f" x="267.62713" y="96.004174" style="fill-opacity: 0; stroke: #000000"/>
    </g>
   </g>
   <g id="patch_13">
    <path d="M 297.710609 148.595478 
L 315.178435 148.595478 
L 315.178435 106.522435 
L 297.710609 106.522435 
L 297.710609 148.595478 
z
" clip-path="url(#pa19faf2950)" style="fill: #add8e6; stroke: #000000; stroke-linejoin: miter"/>
   </g>
   <g id="line2d_54">
    <path d="M 306.444522 148.595478 
L 306.444522 159.113739 
" clip-path="url(#pa19faf2950)" style="fill: none; stroke: #000000; stroke-linecap: square"/>
   </g>
   <g id="line2d_55">
    <path d="M 306.444522 106.522435 
L 306.444522 74.967652 
" clip-path="url(#pa19faf2950)" style="fill: none; stroke: #000000; stroke-linecap: square"/>
   </g>
   <g id="line2d_56">
    <path d="M 302.077565 159.113739 
L 310.811478 159.113739 
" clip-path="url(#pa19faf2950)" style="fill: none; stroke: #000000; stroke-linecap: square"/>
   </g>
   <g id="line2d_57">
    <path d="M 302.077565 74.967652 
L 310.811478 74.967652 
" clip-path="url(#pa19faf2950)" style="fill: none; stroke: #000000; stroke-linecap: square"/>
   </g>
   <g id="line2d_58"/>
   <g id="patch_14">
    <path d="M 336.528 140.706783 
L 353.995826 140.706783 
L 353.995826 106.522435 
L 336.528 106.522435 
L 336.528 140.706783 
z
" clip-path="url(#pa19faf2950)" style="fill: #90ee90; stroke: #000000; stroke-linejoin: miter"/>
   </g>
   <g id="line2d_59">
    <path d="M 345.261913 140.706783 
L 345.261913 159.113739 
" clip-path="url(#pa19faf2950)" style="fill: none; stroke: #000000; stroke-linecap: square"/>
   </g>
   <g id="line2d_60">
    <path d="M 345.261913 106.522435 
L 345.261913 64.449391 
" clip-path="url(#pa19faf2950)" style="fill: none; stroke: #000000; stroke-linecap: square"/>
   </g>
   <g id="line2d_61">
    <path d="M 340.894957 159.113739 
L 349.62887 159.113739 
" clip-path="url(#pa19faf2950)" style="fill: none; stroke: #000000; stroke-linecap: square"/>
   </g>
   <g id="line2d_62">
    <path d="M 340.894957 64.449391 
L 349.62887 64.449391 
" clip-path="url(#pa19faf2950)" style="fill: none; stroke: #000000; stroke-linecap: square"/>
   </g>
   <g id="line2d_63"/>
   <g id="patch_15">
    <path d="M 375.345391 117.040696 
L 392.813217 117.040696 
L 392.813217 96.004174 
L 375.345391 96.004174 
L 375.345391 117.040696 
z
" clip-path="url(#pa19faf2950)" style="fill: #ffa500; stroke: #000000; stroke-linejoin: miter"/>
   </g>
   <g id="line2d_64">
    <path d="M 384.079304 117.040696 
L 384.079304 148.595478 
" clip-path="url(#pa19faf2950)" style="fill: none; stroke: #000000; stroke-linecap: square"/>
   </g>
   <g id="line2d_65">
    <path d="M 384.079304 96.004174 
L 384.079304 64.449391 
" clip-path="url(#pa19faf2950)" style="fill: none; stroke: #000000; stroke-linecap: square"/>
   </g>
   <g id="line2d_66">
    <path d="M 379.712348 148.595478 
L 388.446261 148.595478 
" clip-path="url(#pa19faf2950)" style="fill: none; stroke: #000000; stroke-linecap: square"/>
   </g>
   <g id="line2d_67">
    <path d="M 379.712348 64.449391 
L 388.446261 64.449391 
" clip-path="url(#pa19faf2950)" style="fill: none; stroke: #000000; stroke-linecap: square"/>
   </g>
   <g id="line2d_68">
    <g clip-path="url(#pa19faf2950)">
     <use xlink:href="#m694333326f" x="384.079304" y="53.93113" style="fill-opacity: 0; stroke: #000000"/>
    </g>
   </g>
   <g id="line2d_69">
    <path d="M 258.893217 148.595478 
L 276.361043 148.595478 
" clip-path="url(#pa19faf2950)" style="fill: none; stroke: #ff7f0e"/>
   </g>
   <g id="line2d_70">
    <path d="M 297.710609 127.558957 
L 315.178435 127.558957 
" clip-path="url(#pa19faf2950)" style="fill: none; stroke: #ff7f0e"/>
   </g>
   <g id="line2d_71">
    <path d="M 336.528 127.558957 
L 353.995826 127.558957 
" clip-path="url(#pa19faf2950)" style="fill: none; stroke: #ff7f0e"/>
   </g>
   <g id="line2d_72">
    <path d="M 375.345391 106.522435 
L 392.813217 106.522435 
" clip-path="url(#pa19faf2950)" style="fill: none; stroke: #ff7f0e"/>
   </g>
   <g id="patch_16">
    <path d="M 248.218435 164.37287 
L 248.218435 48.672 
" style="fill: none; stroke: #000000; stroke-width: 0.8; stroke-linejoin: miter; stroke-linecap: square"/>
   </g>
   <g id="patch_17">
    <path d="M 403.488 164.37287 
L 403.488 48.672 
" style="fill: none; stroke: #000000; stroke-width: 0.8; stroke-linejoin: miter; stroke-linecap: square"/>
   </g>
   <g id="patch_18">
    <path d="M 248.218435 164.37287 
L 403.488 164.37287 
" style="fill: none; stroke: #000000; stroke-width: 0.8; stroke-linejoin: miter; stroke-linecap: square"/>
   </g>
   <g id="patch_19">
    <path d="M 248.218435 48.672 
L 403.488 48.672 
" style="fill: none; stroke: #000000; stroke-width: 0.8; stroke-linejoin: miter; stroke-linecap: square"/>
   </g>
   <g id="text_10">
    <!-- Empty (32x32)  -->
    <g transform="translate(294.595366 31.214964) scale(0.1 -0.1)">
     <defs>
      <path id="CMSS17-33" d="M 1005 2060 
L 1440 2060 
C 2042 2060 2214 1532 2214 1164 
C 2214 662 1933 268 1472 268 
C 1114 268 608 449 320 926 
C 275 700 275 687 250 533 
C 550 89 1037 -128 1485 -128 
C 2214 -128 2752 481 2752 1158 
C 2752 1667 2400 2092 1920 2252 
C 2304 2463 2586 2860 2586 3321 
C 2586 3859 2093 4288 1491 4288 
C 941 4288 512 3948 333 3583 
C 378 3519 493 3334 550 3238 
C 691 3615 1056 3897 1485 3897 
C 1843 3897 2080 3660 2080 3321 
C 2080 2969 1856 2585 1478 2496 
C 1453 2496 1056 2457 1005 2451 
L 1005 2060 
z
" transform="scale(0.015625)"/>
      <path id="CMSS17-32" d="M 1651 1353 
C 1830 1538 2099 1761 2285 1984 
C 2464 2201 2701 2507 2701 2953 
C 2701 3655 2227 4288 1421 4288 
C 787 4288 422 3891 250 3272 
L 499 2928 
C 640 3508 838 3878 1338 3878 
C 1888 3878 2195 3431 2195 2940 
C 2195 2354 1747 1901 1408 1563 
C 1030 1187 659 805 301 409 
L 301 0 
L 2701 0 
L 2701 435 
L 1613 435 
C 1536 435 1459 428 1382 428 
L 742 428 
L 742 435 
L 1651 1353 
z
" transform="scale(0.015625)"/>
     </defs>
     <use xlink:href="#CMSS17-45" transform="scale(0.996264)"/>
     <use xlink:href="#CMSS17-6d" transform="translate(55.892013 0) scale(0.996264)"/>
     <use xlink:href="#CMSS17-70" transform="translate(130.121268 0) scale(0.996264)"/>
     <use xlink:href="#CMSS17-74" transform="translate(178.326211 0) scale(0.996264)"/>
     <use xlink:href="#CMSS17-79" transform="translate(209.555324 0) scale(0.996264)"/>
     <use xlink:href="#CMSS17-28" transform="translate(283.784578 0) scale(0.996264)"/>
     <use xlink:href="#CMSS17-33" transform="translate(320.218492 0) scale(0.996264)"/>
     <use xlink:href="#CMSS17-32" transform="translate(367.062116 0) scale(0.996264)"/>
     <use xlink:href="#CMSS17-78" transform="translate(413.905739 0) scale(0.996264)"/>
     <use xlink:href="#CMSS17-33" transform="translate(456.905881 0) scale(0.996264)"/>
     <use xlink:href="#CMSS17-32" transform="translate(503.749504 0) scale(0.996264)"/>
     <use xlink:href="#CMSS17-29" transform="translate(550.593128 0) scale(0.996264)"/>
    </g>
    <!-- $|A| = 4, N = 10, H = 100$ -->
    <g transform="translate(262.542354 42.672) scale(0.1 -0.1)">
     <use xlink:href="#CMBSY10-6a" transform="scale(0.996264)"/>
     <use xlink:href="#CMMIB10-41" transform="translate(31.824931 0) scale(0.996264)"/>
     <use xlink:href="#CMBSY10-6a" transform="translate(118.44411 0) scale(0.996264)"/>
     <use xlink:href="#CMBX12-3d" transform="translate(182.093973 0) scale(0.996264)"/>
     <use xlink:href="#CMBX12-34" transform="translate(301.092005 0) scale(0.996264)"/>
     <use xlink:href="#CMMIB10-3b" transform="translate(357.131855 0) scale(0.996264)"/>
     <use xlink:href="#CMMIB10-4e" transform="translate(408.051746 0) scale(0.996264)"/>
     <use xlink:href="#CMBX12-3d" transform="translate(545.936928 0) scale(0.996264)"/>
     <use xlink:href="#CMBX12-31" transform="translate(664.934961 0) scale(0.996264)"/>
     <use xlink:href="#CMBX12-30" transform="translate(720.974811 0) scale(0.996264)"/>
     <use xlink:href="#CMMIB10-3b" transform="translate(777.014662 0) scale(0.996264)"/>
     <use xlink:href="#CMMIB10-48" transform="translate(827.934552 0) scale(0.996264)"/>
     <use xlink:href="#CMBX12-3d" transform="translate(965.819735 0) scale(0.996264)"/>
     <use xlink:href="#CMBX12-31" transform="translate(1084.817767 0) scale(0.996264)"/>
     <use xlink:href="#CMBX12-30" transform="translate(1140.857618 0) scale(0.996264)"/>
     <use xlink:href="#CMBX12-30" transform="translate(1196.897468 0) scale(0.996264)"/>
    </g>
   </g>
  </g>
  <g id="axes_3">
   <g id="patch_20">
    <path d="M 46.368 314.784 
L 201.637565 314.784 
L 201.637565 199.08313 
L 46.368 199.08313 
z
" style="fill: #ffffff"/>
   </g>
   <g id="matplotlib.axis_5">
    <g id="xtick_9">
     <g id="line2d_73">
      <g>
       <use xlink:href="#m72d9de0c0d" x="65.776696" y="314.784" style="stroke: #000000; stroke-width: 0.8"/>
      </g>
     </g>
     <g id="text_11">
      <!-- SA-V -->
      <g transform="translate(59.71045 342.330933) rotate(-45) scale(0.1 -0.1)">
       <defs>
        <path id="CMSS17-53" d="M 2797 4230 
C 2515 4396 2208 4544 1690 4544 
C 864 4544 333 3934 333 3309 
C 333 3064 403 2787 653 2504 
C 902 2220 1184 2143 1542 2053 
C 1690 2014 1939 1943 1984 1924 
C 2342 1782 2515 1454 2515 1144 
C 2515 738 2202 307 1645 307 
C 1453 307 890 339 358 829 
L 269 320 
C 794 -64 1363 -128 1651 -128 
C 2438 -128 3002 494 3002 1202 
C 3002 1460 2925 1789 2656 2092 
C 2394 2381 2163 2446 1638 2588 
C 1338 2665 1146 2717 986 2916 
C 877 3058 819 3193 819 3367 
C 819 3728 1126 4121 1690 4121 
C 1971 4121 2336 4063 2707 3715 
L 2797 4230 
z
" transform="scale(0.015625)"/>
        <path id="CMSS17-41" d="M 2272 4416 
L 1722 4416 
L 166 0 
L 653 0 
L 1101 1280 
L 2816 1280 
L 3270 0 
L 3827 0 
L 2272 4416 
z
M 2694 1638 
L 1222 1638 
C 1530 2530 1914 3638 1958 3924 
L 1965 3924 
C 2010 3663 2138 3281 2246 2956 
L 2694 1638 
z
" transform="scale(0.015625)"/>
        <path id="CMSS17-2d" d="M 1664 1216 
L 1664 1587 
L 64 1587 
L 64 1216 
L 1664 1216 
z
" transform="scale(0.015625)"/>
        <path id="CMSS17-56" d="M 3910 4416 
L 3411 4416 
L 2304 1361 
C 2272 1272 2074 687 2035 484 
L 2029 484 
C 1978 725 1773 1291 1664 1603 
L 922 3670 
L 646 4416 
L 83 4416 
L 1715 0 
L 2278 0 
L 3910 4416 
z
" transform="scale(0.015625)"/>
       </defs>
       <use xlink:href="#CMSS17-53" transform="scale(0.996264)"/>
       <use xlink:href="#CMSS17-41" transform="translate(52.048516 0) scale(0.996264)"/>
       <use xlink:href="#CMSS17-2d" transform="translate(114.266371 0) scale(0.996264)"/>
       <use xlink:href="#CMSS17-56" transform="translate(145.495484 0) scale(0.996264)"/>
      </g>
     </g>
    </g>
    <g id="xtick_10">
     <g id="line2d_74">
      <g>
       <use xlink:href="#m72d9de0c0d" x="104.594087" y="314.784" style="stroke: #000000; stroke-width: 0.8"/>
      </g>
     </g>
     <g id="text_12">
      <!-- SA-V-CA -->
      <g transform="translate(92.755133 353.876351) rotate(-45) scale(0.1 -0.1)">
       <defs>
        <path id="CMSS17-43" d="M 3501 705 
C 3072 416 2874 332 2355 332 
C 1459 332 934 1304 934 2191 
C 934 3137 1472 4070 2381 4070 
C 2790 4070 3059 3954 3386 3748 
L 3475 4255 
C 3168 4409 2778 4480 2387 4480 
C 1158 4480 397 3343 397 2191 
C 397 924 1299 -77 2323 -77 
C 2874 -77 3066 -32 3539 268 
L 3501 705 
z
" transform="scale(0.015625)"/>
       </defs>
       <use xlink:href="#CMSS17-53" transform="scale(0.996264)"/>
       <use xlink:href="#CMSS17-41" transform="translate(52.048516 0) scale(0.996264)"/>
       <use xlink:href="#CMSS17-2d" transform="translate(114.266371 0) scale(0.996264)"/>
       <use xlink:href="#CMSS17-56" transform="translate(145.495484 0) scale(0.996264)"/>
       <use xlink:href="#CMSS17-2d" transform="translate(207.713339 0) scale(0.996264)"/>
       <use xlink:href="#CMSS17-43" transform="translate(238.942452 0) scale(0.996264)"/>
       <use xlink:href="#CMSS17-41" transform="translate(298.798223 0) scale(0.996264)"/>
      </g>
     </g>
    </g>
    <g id="xtick_11">
     <g id="line2d_75">
      <g>
       <use xlink:href="#m72d9de0c0d" x="143.411478" y="314.784" style="stroke: #000000; stroke-width: 0.8"/>
      </g>
     </g>
     <g id="text_13">
      <!-- MA-MCTS-V -->
      <g transform="translate(125.359503 366.302394) rotate(-45) scale(0.1 -0.1)">
       <defs>
        <path id="CMSS17-4d" d="M 3194 2373 
L 2886 1476 
C 2835 1311 2662 795 2624 592 
L 2618 592 
C 2598 719 2560 853 2458 1177 
C 2400 1368 2336 1565 2272 1743 
L 1325 4416 
L 576 4416 
L 576 0 
L 1075 0 
L 1075 3899 
L 1082 3899 
C 1082 3893 1139 3613 1530 2500 
L 2374 102 
L 2848 102 
L 3610 2233 
C 3661 2379 3821 2843 3891 3066 
C 3955 3257 4115 3728 4154 3912 
L 4160 3912 
L 4160 0 
L 4666 0 
L 4666 4416 
L 3923 4416 
L 3194 2373 
z
" transform="scale(0.015625)"/>
        <path id="CMSS17-54" d="M 2317 3987 
L 2848 3987 
C 2925 3987 3002 3980 3078 3980 
L 3878 3980 
L 3878 4396 
L 218 4396 
L 218 3980 
L 1018 3980 
C 1094 3980 1171 3987 1248 3987 
L 1779 3987 
L 1779 0 
L 2317 0 
L 2317 3987 
z
" transform="scale(0.015625)"/>
       </defs>
       <use xlink:href="#CMSS17-4d" transform="scale(0.996264)"/>
       <use xlink:href="#CMSS17-41" transform="translate(81.67603 0) scale(0.996264)"/>
       <use xlink:href="#CMSS17-2d" transform="translate(143.893885 0) scale(0.996264)"/>
       <use xlink:href="#CMSS17-4d" transform="translate(175.122998 0) scale(0.996264)"/>
       <use xlink:href="#CMSS17-43" transform="translate(256.799028 0) scale(0.996264)"/>
       <use xlink:href="#CMSS17-54" transform="translate(316.654799 0) scale(0.996264)"/>
       <use xlink:href="#CMSS17-53" transform="translate(380.474253 0) scale(0.996264)"/>
       <use xlink:href="#CMSS17-2d" transform="translate(432.522769 0) scale(0.996264)"/>
       <use xlink:href="#CMSS17-56" transform="translate(463.751882 0) scale(0.996264)"/>
      </g>
     </g>
    </g>
    <g id="xtick_12">
     <g id="line2d_76">
      <g>
       <use xlink:href="#m72d9de0c0d" x="182.22887" y="314.784" style="stroke: #000000; stroke-width: 0.8"/>
      </g>
     </g>
     <g id="text_14">
      <!-- MA-V -->
      <g transform="translate(175.037427 344.581327) rotate(-45) scale(0.1 -0.1)">
       <use xlink:href="#CMSS17-4d" transform="scale(0.996264)"/>
       <use xlink:href="#CMSS17-41" transform="translate(81.67603 0) scale(0.996264)"/>
       <use xlink:href="#CMSS17-2d" transform="translate(143.893885 0) scale(0.996264)"/>
       <use xlink:href="#CMSS17-56" transform="translate(175.122998 0) scale(0.996264)"/>
      </g>
     </g>
    </g>
   </g>
   <g id="matplotlib.axis_6">
    <g id="ytick_9">
     <g id="line2d_77">
      <path d="M 46.368 309.52487 
L 201.637565 309.52487 
" clip-path="url(#p9ed7583d72)" style="fill: none; stroke: #b0b0b0; stroke-width: 0.8; stroke-linecap: square"/>
     </g>
     <g id="line2d_78">
      <g>
       <use xlink:href="#m9a556abaf4" x="46.368" y="309.52487" style="stroke: #000000; stroke-width: 0.8"/>
      </g>
     </g>
     <g id="text_15">
      <!-- $\mathdefault{0}$ -->
      <g transform="translate(33.639512 312.984119) scale(0.1 -0.1)">
       <use xlink:href="#CMBX12-30" transform="scale(0.996264)"/>
      </g>
     </g>
    </g>
    <g id="ytick_10">
     <g id="line2d_79">
      <path d="M 46.368 279.472696 
L 201.637565 279.472696 
" clip-path="url(#p9ed7583d72)" style="fill: none; stroke: #b0b0b0; stroke-width: 0.8; stroke-linecap: square"/>
     </g>
     <g id="line2d_80">
      <g>
       <use xlink:href="#m9a556abaf4" x="46.368" y="279.472696" style="stroke: #000000; stroke-width: 0.8"/>
      </g>
     </g>
     <g id="text_16">
      <!-- $\mathdefault{2}$ -->
      <g transform="translate(33.639512 282.931945) scale(0.1 -0.1)">
       <use xlink:href="#CMBX12-32" transform="scale(0.996264)"/>
      </g>
     </g>
    </g>
    <g id="ytick_11">
     <g id="line2d_81">
      <path d="M 46.368 249.420522 
L 201.637565 249.420522 
" clip-path="url(#p9ed7583d72)" style="fill: none; stroke: #b0b0b0; stroke-width: 0.8; stroke-linecap: square"/>
     </g>
     <g id="line2d_82">
      <g>
       <use xlink:href="#m9a556abaf4" x="46.368" y="249.420522" style="stroke: #000000; stroke-width: 0.8"/>
      </g>
     </g>
     <g id="text_17">
      <!-- $\mathdefault{4}$ -->
      <g transform="translate(33.639512 252.879771) scale(0.1 -0.1)">
       <use xlink:href="#CMBX12-34" transform="scale(0.996264)"/>
      </g>
     </g>
    </g>
    <g id="ytick_12">
     <g id="line2d_83">
      <path d="M 46.368 219.368348 
L 201.637565 219.368348 
" clip-path="url(#p9ed7583d72)" style="fill: none; stroke: #b0b0b0; stroke-width: 0.8; stroke-linecap: square"/>
     </g>
     <g id="line2d_84">
      <g>
       <use xlink:href="#m9a556abaf4" x="46.368" y="219.368348" style="stroke: #000000; stroke-width: 0.8"/>
      </g>
     </g>
     <g id="text_18">
      <!-- $\mathdefault{6}$ -->
      <g transform="translate(33.639512 222.827597) scale(0.1 -0.1)">
       <defs>
        <path id="CMBX12-36" d="M 1114 2335 
C 1114 2727 1133 3142 1312 3488 
C 1453 3756 1779 3993 2195 3993 
C 2317 3993 2547 3975 2701 3827 
C 2458 3801 2355 3622 2355 3449 
C 2355 3219 2528 3072 2733 3072 
C 2899 3072 3110 3180 3110 3462 
C 3110 3845 2854 4224 2182 4224 
C 1382 4224 301 3737 301 2046 
C 301 1616 301 -64 1818 -64 
C 2662 -64 3290 435 3290 1334 
C 3290 2232 2669 2707 1907 2707 
C 1779 2707 1370 2707 1114 2162 
L 1114 2335 
z
M 1811 192 
C 1402 192 1242 538 1216 589 
C 1126 801 1126 1315 1126 1372 
C 1126 2162 1466 2496 1843 2496 
C 2477 2496 2477 1982 2477 1340 
C 2477 705 2477 192 1811 192 
z
" transform="scale(0.015625)"/>
       </defs>
       <use xlink:href="#CMBX12-36" transform="scale(0.996264)"/>
      </g>
     </g>
    </g>
   </g>
   <g id="patch_21">
    <path d="M 57.042783 309.52487 
L 74.510609 309.52487 
L 74.510609 294.498783 
L 57.042783 294.498783 
L 57.042783 309.52487 
z
" clip-path="url(#p9ed7583d72)" style="fill: #ffc0cb; stroke: #000000; stroke-linejoin: miter"/>
   </g>
   <g id="line2d_85">
    <path d="M 65.776696 309.52487 
L 65.776696 309.52487 
" clip-path="url(#p9ed7583d72)" style="fill: none; stroke: #000000; stroke-linecap: square"/>
   </g>
   <g id="line2d_86">
    <path d="M 65.776696 294.498783 
L 65.776696 279.472696 
" clip-path="url(#p9ed7583d72)" style="fill: none; stroke: #000000; stroke-linecap: square"/>
   </g>
   <g id="line2d_87">
    <path d="M 61.409739 309.52487 
L 70.143652 309.52487 
" clip-path="url(#p9ed7583d72)" style="fill: none; stroke: #000000; stroke-linecap: square"/>
   </g>
   <g id="line2d_88">
    <path d="M 61.409739 279.472696 
L 70.143652 279.472696 
" clip-path="url(#p9ed7583d72)" style="fill: none; stroke: #000000; stroke-linecap: square"/>
   </g>
   <g id="line2d_89">
    <g clip-path="url(#p9ed7583d72)">
     <use xlink:href="#m694333326f" x="65.776696" y="264.446609" style="fill-opacity: 0; stroke: #000000"/>
     <use xlink:href="#m694333326f" x="65.776696" y="234.394435" style="fill-opacity: 0; stroke: #000000"/>
     <use xlink:href="#m694333326f" x="65.776696" y="249.420522" style="fill-opacity: 0; stroke: #000000"/>
     <use xlink:href="#m694333326f" x="65.776696" y="249.420522" style="fill-opacity: 0; stroke: #000000"/>
     <use xlink:href="#m694333326f" x="65.776696" y="264.446609" style="fill-opacity: 0; stroke: #000000"/>
     <use xlink:href="#m694333326f" x="65.776696" y="264.446609" style="fill-opacity: 0; stroke: #000000"/>
     <use xlink:href="#m694333326f" x="65.776696" y="264.446609" style="fill-opacity: 0; stroke: #000000"/>
     <use xlink:href="#m694333326f" x="65.776696" y="249.420522" style="fill-opacity: 0; stroke: #000000"/>
     <use xlink:href="#m694333326f" x="65.776696" y="264.446609" style="fill-opacity: 0; stroke: #000000"/>
     <use xlink:href="#m694333326f" x="65.776696" y="264.446609" style="fill-opacity: 0; stroke: #000000"/>
     <use xlink:href="#m694333326f" x="65.776696" y="264.446609" style="fill-opacity: 0; stroke: #000000"/>
     <use xlink:href="#m694333326f" x="65.776696" y="249.420522" style="fill-opacity: 0; stroke: #000000"/>
     <use xlink:href="#m694333326f" x="65.776696" y="204.342261" style="fill-opacity: 0; stroke: #000000"/>
    </g>
   </g>
   <g id="patch_22">
    <path d="M 95.860174 309.52487 
L 113.328 309.52487 
L 113.328 264.446609 
L 95.860174 264.446609 
L 95.860174 309.52487 
z
" clip-path="url(#p9ed7583d72)" style="fill: #add8e6; stroke: #000000; stroke-linejoin: miter"/>
   </g>
   <g id="line2d_90">
    <path d="M 104.594087 309.52487 
L 104.594087 309.52487 
" clip-path="url(#p9ed7583d72)" style="fill: none; stroke: #000000; stroke-linecap: square"/>
   </g>
   <g id="line2d_91">
    <path d="M 104.594087 264.446609 
L 104.594087 204.342261 
" clip-path="url(#p9ed7583d72)" style="fill: none; stroke: #000000; stroke-linecap: square"/>
   </g>
   <g id="line2d_92">
    <path d="M 100.22713 309.52487 
L 108.961043 309.52487 
" clip-path="url(#p9ed7583d72)" style="fill: none; stroke: #000000; stroke-linecap: square"/>
   </g>
   <g id="line2d_93">
    <path d="M 100.22713 204.342261 
L 108.961043 204.342261 
" clip-path="url(#p9ed7583d72)" style="fill: none; stroke: #000000; stroke-linecap: square"/>
   </g>
   <g id="line2d_94"/>
   <g id="patch_23">
    <path d="M 134.677565 294.498783 
L 152.145391 294.498783 
L 152.145391 264.446609 
L 134.677565 264.446609 
L 134.677565 294.498783 
z
" clip-path="url(#p9ed7583d72)" style="fill: #90ee90; stroke: #000000; stroke-linejoin: miter"/>
   </g>
   <g id="line2d_95">
    <path d="M 143.411478 294.498783 
L 143.411478 309.52487 
" clip-path="url(#p9ed7583d72)" style="fill: none; stroke: #000000; stroke-linecap: square"/>
   </g>
   <g id="line2d_96">
    <path d="M 143.411478 264.446609 
L 143.411478 219.368348 
" clip-path="url(#p9ed7583d72)" style="fill: none; stroke: #000000; stroke-linecap: square"/>
   </g>
   <g id="line2d_97">
    <path d="M 139.044522 309.52487 
L 147.778435 309.52487 
" clip-path="url(#p9ed7583d72)" style="fill: none; stroke: #000000; stroke-linecap: square"/>
   </g>
   <g id="line2d_98">
    <path d="M 139.044522 219.368348 
L 147.778435 219.368348 
" clip-path="url(#p9ed7583d72)" style="fill: none; stroke: #000000; stroke-linecap: square"/>
   </g>
   <g id="line2d_99"/>
   <g id="patch_24">
    <path d="M 173.494957 294.498783 
L 190.962783 294.498783 
L 190.962783 249.420522 
L 173.494957 249.420522 
L 173.494957 294.498783 
z
" clip-path="url(#p9ed7583d72)" style="fill: #ffa500; stroke: #000000; stroke-linejoin: miter"/>
   </g>
   <g id="line2d_100">
    <path d="M 182.22887 294.498783 
L 182.22887 309.52487 
" clip-path="url(#p9ed7583d72)" style="fill: none; stroke: #000000; stroke-linecap: square"/>
   </g>
   <g id="line2d_101">
    <path d="M 182.22887 249.420522 
L 182.22887 204.342261 
" clip-path="url(#p9ed7583d72)" style="fill: none; stroke: #000000; stroke-linecap: square"/>
   </g>
   <g id="line2d_102">
    <path d="M 177.861913 309.52487 
L 186.595826 309.52487 
" clip-path="url(#p9ed7583d72)" style="fill: none; stroke: #000000; stroke-linecap: square"/>
   </g>
   <g id="line2d_103">
    <path d="M 177.861913 204.342261 
L 186.595826 204.342261 
" clip-path="url(#p9ed7583d72)" style="fill: none; stroke: #000000; stroke-linecap: square"/>
   </g>
   <g id="line2d_104"/>
   <g id="line2d_105">
    <path d="M 57.042783 309.52487 
L 74.510609 309.52487 
" clip-path="url(#p9ed7583d72)" style="fill: none; stroke: #ff7f0e"/>
   </g>
   <g id="line2d_106">
    <path d="M 95.860174 294.498783 
L 113.328 294.498783 
" clip-path="url(#p9ed7583d72)" style="fill: none; stroke: #ff7f0e"/>
   </g>
   <g id="line2d_107">
    <path d="M 134.677565 279.472696 
L 152.145391 279.472696 
" clip-path="url(#p9ed7583d72)" style="fill: none; stroke: #ff7f0e"/>
   </g>
   <g id="line2d_108">
    <path d="M 173.494957 271.959652 
L 190.962783 271.959652 
" clip-path="url(#p9ed7583d72)" style="fill: none; stroke: #ff7f0e"/>
   </g>
   <g id="patch_25">
    <path d="M 46.368 314.784 
L 46.368 199.08313 
" style="fill: none; stroke: #000000; stroke-width: 0.8; stroke-linejoin: miter; stroke-linecap: square"/>
   </g>
   <g id="patch_26">
    <path d="M 201.637565 314.784 
L 201.637565 199.08313 
" style="fill: none; stroke: #000000; stroke-width: 0.8; stroke-linejoin: miter; stroke-linecap: square"/>
   </g>
   <g id="patch_27">
    <path d="M 46.368 314.784 
L 201.637565 314.784 
" style="fill: none; stroke: #000000; stroke-width: 0.8; stroke-linejoin: miter; stroke-linecap: square"/>
   </g>
   <g id="patch_28">
    <path d="M 46.368 199.08313 
L 201.637565 199.08313 
" style="fill: none; stroke: #000000; stroke-width: 0.8; stroke-linejoin: miter; stroke-linecap: square"/>
   </g>
   <g id="text_19">
    <!-- Maze (32x32)  -->
    <g transform="translate(95.076451 181.626094) scale(0.1 -0.1)">
     <defs>
      <path id="CMSS17-61" d="M 2406 1789 
C 2406 2399 1978 2816 1402 2816 
C 1120 2816 813 2764 461 2559 
L 499 2133 
C 659 2250 934 2438 1395 2438 
C 1722 2438 1920 2185 1920 1782 
L 1920 1536 
C 896 1504 256 1209 256 711 
C 256 452 416 -64 947 -64 
C 1043 -64 1562 -52 1933 224 
L 1933 -13 
L 2406 -13 
L 2406 1789 
z
M 1920 824 
C 1920 711 1920 559 1728 446 
C 1562 339 1350 326 1261 326 
C 941 326 723 503 723 723 
C 723 1165 1722 1209 1920 1216 
L 1920 824 
z
" transform="scale(0.015625)"/>
      <path id="CMSS17-7a" d="M 2400 2502 
L 2400 2752 
L 250 2752 
L 250 2367 
L 1069 2367 
C 1146 2367 1222 2374 1299 2374 
L 1747 2374 
L 166 262 
L 166 0 
L 2419 0 
L 2419 396 
L 1549 396 
C 1472 396 1395 390 1318 390 
L 826 390 
L 2400 2502 
z
" transform="scale(0.015625)"/>
      <path id="CMSS17-65" d="M 2502 1375 
C 2502 1587 2490 2001 2285 2347 
C 2061 2713 1696 2816 1421 2816 
C 755 2816 192 2184 192 1363 
C 192 579 774 -64 1510 -64 
C 1798 -64 2150 19 2470 249 
C 2470 275 2458 414 2451 421 
C 2451 433 2432 629 2432 655 
C 2125 408 1773 326 1517 326 
C 1107 326 666 667 646 1375 
L 2502 1375 
z
M 698 1728 
C 781 2086 1062 2425 1421 2425 
C 1517 2425 1965 2412 2080 1728 
L 698 1728 
z
" transform="scale(0.015625)"/>
     </defs>
     <use xlink:href="#CMSS17-4d" transform="scale(0.996264)"/>
     <use xlink:href="#CMSS17-61" transform="translate(81.67603 0) scale(0.996264)"/>
     <use xlink:href="#CMSS17-7a" transform="translate(126.597951 0) scale(0.996264)"/>
     <use xlink:href="#CMSS17-65" transform="translate(167.275822 0) scale(0.996264)"/>
     <use xlink:href="#CMSS17-28" transform="translate(240.143757 0) scale(0.996264)"/>
     <use xlink:href="#CMSS17-33" transform="translate(276.577671 0) scale(0.996264)"/>
     <use xlink:href="#CMSS17-32" transform="translate(323.421295 0) scale(0.996264)"/>
     <use xlink:href="#CMSS17-78" transform="translate(370.264918 0) scale(0.996264)"/>
     <use xlink:href="#CMSS17-33" transform="translate(413.26506 0) scale(0.996264)"/>
     <use xlink:href="#CMSS17-32" transform="translate(460.108684 0) scale(0.996264)"/>
     <use xlink:href="#CMSS17-29" transform="translate(506.952307 0) scale(0.996264)"/>
    </g>
    <!-- $|A| = 4, N = 10, H = 100$ -->
    <g transform="translate(60.69192 193.08313) scale(0.1 -0.1)">
     <use xlink:href="#CMBSY10-6a" transform="scale(0.996264)"/>
     <use xlink:href="#CMMIB10-41" transform="translate(31.824931 0) scale(0.996264)"/>
     <use xlink:href="#CMBSY10-6a" transform="translate(118.44411 0) scale(0.996264)"/>
     <use xlink:href="#CMBX12-3d" transform="translate(182.093973 0) scale(0.996264)"/>
     <use xlink:href="#CMBX12-34" transform="translate(301.092005 0) scale(0.996264)"/>
     <use xlink:href="#CMMIB10-3b" transform="translate(357.131855 0) scale(0.996264)"/>
     <use xlink:href="#CMMIB10-4e" transform="translate(408.051746 0) scale(0.996264)"/>
     <use xlink:href="#CMBX12-3d" transform="translate(545.936928 0) scale(0.996264)"/>
     <use xlink:href="#CMBX12-31" transform="translate(664.934961 0) scale(0.996264)"/>
     <use xlink:href="#CMBX12-30" transform="translate(720.974811 0) scale(0.996264)"/>
     <use xlink:href="#CMMIB10-3b" transform="translate(777.014662 0) scale(0.996264)"/>
     <use xlink:href="#CMMIB10-48" transform="translate(827.934552 0) scale(0.996264)"/>
     <use xlink:href="#CMBX12-3d" transform="translate(965.819735 0) scale(0.996264)"/>
     <use xlink:href="#CMBX12-31" transform="translate(1084.817767 0) scale(0.996264)"/>
     <use xlink:href="#CMBX12-30" transform="translate(1140.857618 0) scale(0.996264)"/>
     <use xlink:href="#CMBX12-30" transform="translate(1196.897468 0) scale(0.996264)"/>
    </g>
   </g>
  </g>
  <g id="axes_4">
   <g id="patch_29">
    <path d="M 248.218435 314.784 
L 403.488 314.784 
L 403.488 199.08313 
L 248.218435 199.08313 
z
" style="fill: #ffffff"/>
   </g>
   <g id="matplotlib.axis_7">
    <g id="xtick_13">
     <g id="line2d_109">
      <g>
       <use xlink:href="#m72d9de0c0d" x="267.62713" y="314.784" style="stroke: #000000; stroke-width: 0.8"/>
      </g>
     </g>
     <g id="text_20">
      <!-- SA-V -->
      <g transform="translate(261.560885 342.330933) rotate(-45) scale(0.1 -0.1)">
       <use xlink:href="#CMSS17-53" transform="scale(0.996264)"/>
       <use xlink:href="#CMSS17-41" transform="translate(52.048516 0) scale(0.996264)"/>
       <use xlink:href="#CMSS17-2d" transform="translate(114.266371 0) scale(0.996264)"/>
       <use xlink:href="#CMSS17-56" transform="translate(145.495484 0) scale(0.996264)"/>
      </g>
     </g>
    </g>
    <g id="xtick_14">
     <g id="line2d_110">
      <g>
       <use xlink:href="#m72d9de0c0d" x="306.444522" y="314.784" style="stroke: #000000; stroke-width: 0.8"/>
      </g>
     </g>
     <g id="text_21">
      <!-- SA-V-CA -->
      <g transform="translate(294.605567 353.876351) rotate(-45) scale(0.1 -0.1)">
       <use xlink:href="#CMSS17-53" transform="scale(0.996264)"/>
       <use xlink:href="#CMSS17-41" transform="translate(52.048516 0) scale(0.996264)"/>
       <use xlink:href="#CMSS17-2d" transform="translate(114.266371 0) scale(0.996264)"/>
       <use xlink:href="#CMSS17-56" transform="translate(145.495484 0) scale(0.996264)"/>
       <use xlink:href="#CMSS17-2d" transform="translate(207.713339 0) scale(0.996264)"/>
       <use xlink:href="#CMSS17-43" transform="translate(238.942452 0) scale(0.996264)"/>
       <use xlink:href="#CMSS17-41" transform="translate(298.798223 0) scale(0.996264)"/>
      </g>
     </g>
    </g>
    <g id="xtick_15">
     <g id="line2d_111">
      <g>
       <use xlink:href="#m72d9de0c0d" x="345.261913" y="314.784" style="stroke: #000000; stroke-width: 0.8"/>
      </g>
     </g>
     <g id="text_22">
      <!-- MA-MCTS-V -->
      <g transform="translate(327.209937 366.302394) rotate(-45) scale(0.1 -0.1)">
       <use xlink:href="#CMSS17-4d" transform="scale(0.996264)"/>
       <use xlink:href="#CMSS17-41" transform="translate(81.67603 0) scale(0.996264)"/>
       <use xlink:href="#CMSS17-2d" transform="translate(143.893885 0) scale(0.996264)"/>
       <use xlink:href="#CMSS17-4d" transform="translate(175.122998 0) scale(0.996264)"/>
       <use xlink:href="#CMSS17-43" transform="translate(256.799028 0) scale(0.996264)"/>
       <use xlink:href="#CMSS17-54" transform="translate(316.654799 0) scale(0.996264)"/>
       <use xlink:href="#CMSS17-53" transform="translate(380.474253 0) scale(0.996264)"/>
       <use xlink:href="#CMSS17-2d" transform="translate(432.522769 0) scale(0.996264)"/>
       <use xlink:href="#CMSS17-56" transform="translate(463.751882 0) scale(0.996264)"/>
      </g>
     </g>
    </g>
    <g id="xtick_16">
     <g id="line2d_112">
      <g>
       <use xlink:href="#m72d9de0c0d" x="384.079304" y="314.784" style="stroke: #000000; stroke-width: 0.8"/>
      </g>
     </g>
     <g id="text_23">
      <!-- MA-V -->
      <g transform="translate(376.887862 344.581327) rotate(-45) scale(0.1 -0.1)">
       <use xlink:href="#CMSS17-4d" transform="scale(0.996264)"/>
       <use xlink:href="#CMSS17-41" transform="translate(81.67603 0) scale(0.996264)"/>
       <use xlink:href="#CMSS17-2d" transform="translate(143.893885 0) scale(0.996264)"/>
       <use xlink:href="#CMSS17-56" transform="translate(175.122998 0) scale(0.996264)"/>
      </g>
     </g>
    </g>
   </g>
   <g id="matplotlib.axis_8">
    <g id="ytick_13">
     <g id="line2d_113">
      <path d="M 248.218435 309.52487 
L 403.488 309.52487 
" clip-path="url(#p14de1899fa)" style="fill: none; stroke: #b0b0b0; stroke-width: 0.8; stroke-linecap: square"/>
     </g>
     <g id="line2d_114">
      <g>
       <use xlink:href="#m9a556abaf4" x="248.218435" y="309.52487" style="stroke: #000000; stroke-width: 0.8"/>
      </g>
     </g>
     <g id="text_24">
      <!-- $\mathdefault{0}$ -->
      <g transform="translate(235.489947 312.984119) scale(0.1 -0.1)">
       <use xlink:href="#CMBX12-30" transform="scale(0.996264)"/>
      </g>
     </g>
    </g>
    <g id="ytick_14">
     <g id="line2d_115">
      <path d="M 248.218435 271.959652 
L 403.488 271.959652 
" clip-path="url(#p14de1899fa)" style="fill: none; stroke: #b0b0b0; stroke-width: 0.8; stroke-linecap: square"/>
     </g>
     <g id="line2d_116">
      <g>
       <use xlink:href="#m9a556abaf4" x="248.218435" y="271.959652" style="stroke: #000000; stroke-width: 0.8"/>
      </g>
     </g>
     <g id="text_25">
      <!-- $\mathdefault{5}$ -->
      <g transform="translate(235.489947 275.418901) scale(0.1 -0.1)">
       <use xlink:href="#CMBX12-35" transform="scale(0.996264)"/>
      </g>
     </g>
    </g>
    <g id="ytick_15">
     <g id="line2d_117">
      <path d="M 248.218435 234.394435 
L 403.488 234.394435 
" clip-path="url(#p14de1899fa)" style="fill: none; stroke: #b0b0b0; stroke-width: 0.8; stroke-linecap: square"/>
     </g>
     <g id="line2d_118">
      <g>
       <use xlink:href="#m9a556abaf4" x="248.218435" y="234.394435" style="stroke: #000000; stroke-width: 0.8"/>
      </g>
     </g>
     <g id="text_26">
      <!-- $\mathdefault{10}$ -->
      <g transform="translate(229.761459 237.853684) scale(0.1 -0.1)">
       <use xlink:href="#CMBX12-31" transform="scale(0.996264)"/>
       <use xlink:href="#CMBX12-30" transform="translate(56.039851 0) scale(0.996264)"/>
      </g>
     </g>
    </g>
   </g>
   <g id="patch_30">
    <path d="M 258.893217 309.52487 
L 276.361043 309.52487 
L 276.361043 294.498783 
L 258.893217 294.498783 
L 258.893217 309.52487 
z
" clip-path="url(#p14de1899fa)" style="fill: #ffc0cb; stroke: #000000; stroke-linejoin: miter"/>
   </g>
   <g id="line2d_119">
    <path d="M 267.62713 309.52487 
L 267.62713 309.52487 
" clip-path="url(#p14de1899fa)" style="fill: none; stroke: #000000; stroke-linecap: square"/>
   </g>
   <g id="line2d_120">
    <path d="M 267.62713 294.498783 
L 267.62713 271.959652 
" clip-path="url(#p14de1899fa)" style="fill: none; stroke: #000000; stroke-linecap: square"/>
   </g>
   <g id="line2d_121">
    <path d="M 263.260174 309.52487 
L 271.994087 309.52487 
" clip-path="url(#p14de1899fa)" style="fill: none; stroke: #000000; stroke-linecap: square"/>
   </g>
   <g id="line2d_122">
    <path d="M 263.260174 271.959652 
L 271.994087 271.959652 
" clip-path="url(#p14de1899fa)" style="fill: none; stroke: #000000; stroke-linecap: square"/>
   </g>
   <g id="line2d_123">
    <g clip-path="url(#p14de1899fa)">
     <use xlink:href="#m694333326f" x="267.62713" y="264.446609" style="fill-opacity: 0; stroke: #000000"/>
     <use xlink:href="#m694333326f" x="267.62713" y="264.446609" style="fill-opacity: 0; stroke: #000000"/>
    </g>
   </g>
   <g id="patch_31">
    <path d="M 297.710609 302.011826 
L 315.178435 302.011826 
L 315.178435 285.107478 
L 297.710609 285.107478 
L 297.710609 302.011826 
z
" clip-path="url(#p14de1899fa)" style="fill: #add8e6; stroke: #000000; stroke-linejoin: miter"/>
   </g>
   <g id="line2d_124">
    <path d="M 306.444522 302.011826 
L 306.444522 309.52487 
" clip-path="url(#p14de1899fa)" style="fill: none; stroke: #000000; stroke-linecap: square"/>
   </g>
   <g id="line2d_125">
    <path d="M 306.444522 285.107478 
L 306.444522 264.446609 
" clip-path="url(#p14de1899fa)" style="fill: none; stroke: #000000; stroke-linecap: square"/>
   </g>
   <g id="line2d_126">
    <path d="M 302.077565 309.52487 
L 310.811478 309.52487 
" clip-path="url(#p14de1899fa)" style="fill: none; stroke: #000000; stroke-linecap: square"/>
   </g>
   <g id="line2d_127">
    <path d="M 302.077565 264.446609 
L 310.811478 264.446609 
" clip-path="url(#p14de1899fa)" style="fill: none; stroke: #000000; stroke-linecap: square"/>
   </g>
   <g id="line2d_128">
    <g clip-path="url(#p14de1899fa)">
     <use xlink:href="#m694333326f" x="306.444522" y="256.933565" style="fill-opacity: 0; stroke: #000000"/>
     <use xlink:href="#m694333326f" x="306.444522" y="256.933565" style="fill-opacity: 0; stroke: #000000"/>
     <use xlink:href="#m694333326f" x="306.444522" y="256.933565" style="fill-opacity: 0; stroke: #000000"/>
     <use xlink:href="#m694333326f" x="306.444522" y="249.420522" style="fill-opacity: 0; stroke: #000000"/>
    </g>
   </g>
   <g id="patch_32">
    <path d="M 336.528 302.011826 
L 353.995826 302.011826 
L 353.995826 277.594435 
L 336.528 277.594435 
L 336.528 302.011826 
z
" clip-path="url(#p14de1899fa)" style="fill: #90ee90; stroke: #000000; stroke-linejoin: miter"/>
   </g>
   <g id="line2d_129">
    <path d="M 345.261913 302.011826 
L 345.261913 309.52487 
" clip-path="url(#p14de1899fa)" style="fill: none; stroke: #000000; stroke-linecap: square"/>
   </g>
   <g id="line2d_130">
    <path d="M 345.261913 277.594435 
L 345.261913 241.907478 
" clip-path="url(#p14de1899fa)" style="fill: none; stroke: #000000; stroke-linecap: square"/>
   </g>
   <g id="line2d_131">
    <path d="M 340.894957 309.52487 
L 349.62887 309.52487 
" clip-path="url(#p14de1899fa)" style="fill: none; stroke: #000000; stroke-linecap: square"/>
   </g>
   <g id="line2d_132">
    <path d="M 340.894957 241.907478 
L 349.62887 241.907478 
" clip-path="url(#p14de1899fa)" style="fill: none; stroke: #000000; stroke-linecap: square"/>
   </g>
   <g id="line2d_133">
    <g clip-path="url(#p14de1899fa)">
     <use xlink:href="#m694333326f" x="345.261913" y="219.368348" style="fill-opacity: 0; stroke: #000000"/>
    </g>
   </g>
   <g id="patch_33">
    <path d="M 375.345391 302.011826 
L 392.813217 302.011826 
L 392.813217 264.446609 
L 375.345391 264.446609 
L 375.345391 302.011826 
z
" clip-path="url(#p14de1899fa)" style="fill: #ffa500; stroke: #000000; stroke-linejoin: miter"/>
   </g>
   <g id="line2d_134">
    <path d="M 384.079304 302.011826 
L 384.079304 309.52487 
" clip-path="url(#p14de1899fa)" style="fill: none; stroke: #000000; stroke-linecap: square"/>
   </g>
   <g id="line2d_135">
    <path d="M 384.079304 264.446609 
L 384.079304 219.368348 
" clip-path="url(#p14de1899fa)" style="fill: none; stroke: #000000; stroke-linecap: square"/>
   </g>
   <g id="line2d_136">
    <path d="M 379.712348 309.52487 
L 388.446261 309.52487 
" clip-path="url(#p14de1899fa)" style="fill: none; stroke: #000000; stroke-linecap: square"/>
   </g>
   <g id="line2d_137">
    <path d="M 379.712348 219.368348 
L 388.446261 219.368348 
" clip-path="url(#p14de1899fa)" style="fill: none; stroke: #000000; stroke-linecap: square"/>
   </g>
   <g id="line2d_138">
    <g clip-path="url(#p14de1899fa)">
     <use xlink:href="#m694333326f" x="384.079304" y="204.342261" style="fill-opacity: 0; stroke: #000000"/>
    </g>
   </g>
   <g id="line2d_139">
    <path d="M 258.893217 302.011826 
L 276.361043 302.011826 
" clip-path="url(#p14de1899fa)" style="fill: none; stroke: #ff7f0e"/>
   </g>
   <g id="line2d_140">
    <path d="M 297.710609 298.255304 
L 315.178435 298.255304 
" clip-path="url(#p14de1899fa)" style="fill: none; stroke: #ff7f0e"/>
   </g>
   <g id="line2d_141">
    <path d="M 336.528 294.498783 
L 353.995826 294.498783 
" clip-path="url(#p14de1899fa)" style="fill: none; stroke: #ff7f0e"/>
   </g>
   <g id="line2d_142">
    <path d="M 375.345391 286.985739 
L 392.813217 286.985739 
" clip-path="url(#p14de1899fa)" style="fill: none; stroke: #ff7f0e"/>
   </g>
   <g id="patch_34">
    <path d="M 248.218435 314.784 
L 248.218435 199.08313 
" style="fill: none; stroke: #000000; stroke-width: 0.8; stroke-linejoin: miter; stroke-linecap: square"/>
   </g>
   <g id="patch_35">
    <path d="M 403.488 314.784 
L 403.488 199.08313 
" style="fill: none; stroke: #000000; stroke-width: 0.8; stroke-linejoin: miter; stroke-linecap: square"/>
   </g>
   <g id="patch_36">
    <path d="M 248.218435 314.784 
L 403.488 314.784 
" style="fill: none; stroke: #000000; stroke-width: 0.8; stroke-linejoin: miter; stroke-linecap: square"/>
   </g>
   <g id="patch_37">
    <path d="M 248.218435 199.08313 
L 403.488 199.08313 
" style="fill: none; stroke: #000000; stroke-width: 0.8; stroke-linejoin: miter; stroke-linecap: square"/>
   </g>
   <g id="text_27">
    <!-- Dense (65x81)  -->
    <g transform="translate(295.550121 181.626094) scale(0.1 -0.1)">
     <defs>
      <path id="CMSS17-44" d="M 570 4416 
L 570 0 
L 2144 0 
C 3194 0 4000 981 4000 2169 
C 4000 3396 3194 4416 2144 4416 
L 570 4416 
z
M 1094 358 
L 1094 4057 
L 2003 4057 
C 2861 4057 3475 3275 3475 2169 
C 3475 1108 2867 358 2003 358 
L 1094 358 
z
" transform="scale(0.015625)"/>
      <path id="CMSS17-6e" d="M 2618 1878 
C 2618 2283 2522 2816 1798 2816 
C 1389 2816 1120 2604 941 2386 
L 941 2783 
L 474 2783 
L 474 0 
L 960 0 
L 960 1556 
C 960 1962 1114 2425 1549 2425 
C 2112 2425 2131 2045 2131 1826 
L 2131 0 
L 2618 0 
L 2618 1878 
z
" transform="scale(0.015625)"/>
      <path id="CMSS17-73" d="M 2061 2623 
C 1683 2803 1389 2816 1197 2816 
C 742 2816 198 2655 198 2009 
C 198 1363 902 1222 1094 1183 
C 1389 1126 1715 1062 1715 742 
C 1715 339 1254 339 1171 339 
C 915 339 563 409 243 639 
L 166 211 
C 531 0 883 -64 1178 -64 
C 1965 -64 2163 416 2163 780 
C 2163 1094 1984 1305 1862 1401 
C 1651 1567 1574 1587 1050 1695 
C 960 1708 646 1779 646 2067 
C 646 2431 1050 2431 1139 2431 
C 1555 2431 1811 2303 1984 2207 
L 2061 2623 
z
" transform="scale(0.015625)"/>
      <path id="CMSS17-35" d="M 934 3814 
L 2502 3814 
L 2502 4224 
L 467 4224 
L 467 1830 
L 896 1830 
C 1011 2103 1248 2304 1555 2304 
C 1843 2304 2163 2044 2163 1299 
C 2163 502 1709 268 1376 268 
C 966 268 589 521 422 871 
L 218 508 
C 512 51 992 -128 1376 -128 
C 2118 -128 2701 508 2701 1286 
C 2701 2083 2182 2694 1562 2694 
C 1338 2694 1120 2617 934 2464 
L 934 3814 
z
" transform="scale(0.015625)"/>
      <path id="CMSS17-38" d="M 1933 2246 
C 2419 2406 2669 2793 2669 3174 
C 2669 3774 2157 4288 1504 4288 
C 826 4288 333 3755 333 3174 
C 333 2799 576 2412 1069 2246 
C 442 2003 250 1516 250 1152 
C 250 448 819 -128 1498 -128 
C 2202 -128 2752 460 2752 1152 
C 2752 1574 2502 2022 1933 2246 
z
M 1504 2438 
C 1075 2438 787 2728 787 3167 
C 787 3613 1075 3897 1504 3897 
C 1901 3897 2214 3639 2214 3167 
C 2214 2703 1907 2438 1504 2438 
z
M 1504 268 
C 1139 268 749 518 749 1158 
C 749 1817 1184 2048 1498 2048 
C 1843 2048 2253 1804 2253 1158 
C 2253 492 1830 268 1504 268 
z
" transform="scale(0.015625)"/>
     </defs>
     <use xlink:href="#CMSS17-44" transform="scale(0.996264)"/>
     <use xlink:href="#CMSS17-65" transform="translate(67.542842 0) scale(0.996264)"/>
     <use xlink:href="#CMSS17-6e" transform="translate(109.181664 0) scale(0.996264)"/>
     <use xlink:href="#CMSS17-73" transform="translate(157.386607 0) scale(0.996264)"/>
     <use xlink:href="#CMSS17-65" transform="translate(193.300149 0) scale(0.996264)"/>
     <use xlink:href="#CMSS17-28" transform="translate(266.168084 0) scale(0.996264)"/>
     <use xlink:href="#CMSS17-36" transform="translate(302.601998 0) scale(0.996264)"/>
     <use xlink:href="#CMSS17-35" transform="translate(349.445621 0) scale(0.996264)"/>
     <use xlink:href="#CMSS17-78" transform="translate(396.289245 0) scale(0.996264)"/>
     <use xlink:href="#CMSS17-38" transform="translate(439.289387 0) scale(0.996264)"/>
     <use xlink:href="#CMSS17-31" transform="translate(486.13301 0) scale(0.996264)"/>
     <use xlink:href="#CMSS17-29" transform="translate(532.976634 0) scale(0.996264)"/>
    </g>
    <!-- $|A| = 4, N = 30, H = 150$ -->
    <g transform="translate(262.542354 193.08313) scale(0.1 -0.1)">
     <use xlink:href="#CMBSY10-6a" transform="scale(0.996264)"/>
     <use xlink:href="#CMMIB10-41" transform="translate(31.824931 0) scale(0.996264)"/>
     <use xlink:href="#CMBSY10-6a" transform="translate(118.44411 0) scale(0.996264)"/>
     <use xlink:href="#CMBX12-3d" transform="translate(182.093973 0) scale(0.996264)"/>
     <use xlink:href="#CMBX12-34" transform="translate(301.092005 0) scale(0.996264)"/>
     <use xlink:href="#CMMIB10-3b" transform="translate(357.131855 0) scale(0.996264)"/>
     <use xlink:href="#CMMIB10-4e" transform="translate(408.051746 0) scale(0.996264)"/>
     <use xlink:href="#CMBX12-3d" transform="translate(545.936928 0) scale(0.996264)"/>
     <use xlink:href="#CMBX12-33" transform="translate(664.934961 0) scale(0.996264)"/>
     <use xlink:href="#CMBX12-30" transform="translate(720.974811 0) scale(0.996264)"/>
     <use xlink:href="#CMMIB10-3b" transform="translate(777.014662 0) scale(0.996264)"/>
     <use xlink:href="#CMMIB10-48" transform="translate(827.934552 0) scale(0.996264)"/>
     <use xlink:href="#CMBX12-3d" transform="translate(965.819735 0) scale(0.996264)"/>
     <use xlink:href="#CMBX12-31" transform="translate(1084.817767 0) scale(0.996264)"/>
     <use xlink:href="#CMBX12-35" transform="translate(1140.857618 0) scale(0.996264)"/>
     <use xlink:href="#CMBX12-30" transform="translate(1196.897468 0) scale(0.996264)"/>
    </g>
   </g>
  </g>
  <g id="text_28">
   <!-- Number of Unique Phenomenons Discovered -->
   <g transform="translate(110.299105 15.50218) scale(0.12 -0.12)">
    <defs>
     <path id="CMSS17-4e" d="M 1466 4179 
L 1350 4416 
L 563 4416 
L 563 0 
L 1062 0 
L 1062 3925 
L 1069 3931 
C 1114 3817 1139 3759 1402 3193 
L 2771 236 
L 2886 0 
L 3674 0 
L 3674 4416 
L 3174 4416 
L 3174 490 
L 3168 484 
C 3123 598 3098 655 2835 1222 
L 1466 4179 
z
" transform="scale(0.015625)"/>
     <path id="CMSS17-75" d="M 2618 2752 
L 2131 2752 
L 2131 976 
C 2131 500 1786 307 1421 307 
C 998 307 960 448 960 712 
L 960 2752 
L 474 2752 
L 474 680 
C 474 179 646 -64 1088 -64 
C 1306 -64 1798 -13 2144 307 
L 2144 -13 
L 2618 -13 
L 2618 2752 
z
" transform="scale(0.015625)"/>
     <path id="CMSS17-62" d="M 954 4416 
L 480 4416 
L 480 -13 
L 966 -13 
L 966 275 
C 1210 38 1504 -64 1766 -64 
C 2381 -64 2880 559 2880 1382 
C 2880 2133 2496 2816 1926 2816 
C 1523 2816 1165 2649 954 2476 
L 954 4416 
z
M 966 2095 
C 1107 2276 1306 2425 1587 2425 
C 1965 2425 2394 2146 2394 1382 
C 2394 566 1882 326 1530 326 
C 1402 326 1267 358 1139 468 
C 966 624 966 721 966 812 
L 966 2095 
z
" transform="scale(0.015625)"/>
     <path id="CMSS17-72" d="M 954 1369 
C 954 1974 1395 2379 1958 2392 
L 1958 2816 
C 1549 2809 1165 2604 934 2270 
L 934 2783 
L 480 2783 
L 480 0 
L 954 0 
L 954 1369 
z
" transform="scale(0.015625)"/>
     <path id="CMSS17-6f" d="M 2829 1356 
C 2829 2175 2221 2816 1504 2816 
C 768 2816 173 2156 173 1356 
C 173 544 787 -64 1498 -64 
C 2227 -64 2829 563 2829 1356 
z
M 1504 339 
C 1050 339 659 710 659 1407 
C 659 2150 1114 2425 1498 2425 
C 1914 2425 2342 2124 2342 1407 
C 2342 684 1926 339 1504 339 
z
" transform="scale(0.015625)"/>
     <path id="CMSS17-66" d="M 1075 2380 
L 1722 2380 
L 1722 2752 
L 1062 2752 
L 1062 3563 
C 1062 4013 1408 4089 1606 4089 
C 1670 4089 1850 4089 2080 4007 
L 2080 4428 
C 1933 4460 1754 4480 1613 4480 
C 1018 4480 602 3994 602 3366 
L 602 2752 
L 160 2752 
L 160 2380 
L 602 2380 
L 602 0 
L 1075 0 
L 1075 2380 
z
" transform="scale(0.015625)"/>
     <path id="CMSS17-55" d="M 3552 4416 
L 3066 4416 
L 3066 1459 
C 3066 608 2547 230 2074 230 
C 1587 230 1101 627 1101 1452 
L 1101 4416 
L 563 4416 
L 563 1465 
C 563 544 1274 -128 2067 -128 
C 2861 -128 3552 544 3552 1465 
L 3552 4416 
z
" transform="scale(0.015625)"/>
     <path id="CMSS17-69" d="M 979 4224 
L 442 4224 
L 442 3686 
L 979 3686 
L 979 4224 
z
M 947 2752 
L 474 2752 
L 474 0 
L 947 0 
L 947 2752 
z
" transform="scale(0.015625)"/>
     <path id="CMSS17-71" d="M 2611 2816 
L 2138 2816 
L 2138 2425 
C 2112 2457 1818 2816 1318 2816 
C 736 2816 211 2218 211 1369 
C 211 585 653 -64 1229 -64 
C 1498 -64 1837 32 2125 307 
L 2125 -1280 
L 2611 -1280 
L 2611 2816 
z
M 2138 870 
C 2138 786 2138 669 1939 501 
C 1888 456 1747 326 1504 326 
C 1050 326 698 805 698 1369 
C 698 1998 1126 2412 1562 2412 
C 1926 2412 2138 2049 2138 1777 
L 2138 870 
z
" transform="scale(0.015625)"/>
     <path id="CMSS17-50" d="M 2106 1856 
C 2874 1856 3501 2447 3501 3139 
C 3501 3818 2899 4416 2067 4416 
L 570 4416 
L 570 0 
L 1107 0 
L 1107 1856 
L 2106 1856 
z
M 1926 4057 
C 2669 4057 2995 3598 2995 3139 
C 2995 2711 2694 2227 1926 2227 
L 1094 2227 
L 1094 4057 
L 1926 4057 
z
" transform="scale(0.015625)"/>
     <path id="CMSS17-68" d="M 2618 1878 
C 2618 2283 2522 2816 1798 2816 
C 1395 2816 1133 2617 947 2399 
L 947 4416 
L 474 4416 
L 474 0 
L 960 0 
L 960 1556 
C 960 1962 1114 2425 1549 2425 
C 2112 2425 2131 2045 2131 1826 
L 2131 0 
L 2618 0 
L 2618 1878 
z
" transform="scale(0.015625)"/>
     <path id="CMSS17-63" d="M 2464 2540 
C 2464 2585 2170 2713 2093 2739 
C 1882 2816 1613 2816 1542 2816 
C 710 2816 211 2092 211 1363 
C 211 595 768 -64 1517 -64 
C 1946 -64 2253 76 2502 243 
L 2464 665 
C 2189 454 1869 339 1523 339 
C 1024 339 698 774 698 1369 
C 698 1830 909 2412 1549 2412 
C 1901 2412 2099 2342 2394 2143 
L 2464 2540 
z
" transform="scale(0.015625)"/>
     <path id="CMSS17-76" d="M 2675 2752 
L 2176 2752 
L 1747 1555 
C 1613 1164 1421 627 1389 352 
L 1382 352 
C 1370 467 1318 633 1286 748 
C 1248 889 1197 1056 1158 1171 
L 595 2752 
L 83 2752 
L 1094 0 
L 1664 0 
L 2675 2752 
z
" transform="scale(0.015625)"/>
     <path id="CMSS17-64" d="M 2611 4416 
L 2138 4416 
L 2138 2495 
C 1939 2662 1613 2816 1254 2816 
C 672 2816 211 2179 211 1375 
C 211 572 666 -64 1235 -64 
C 1677 -64 1971 172 2125 307 
L 2125 -13 
L 2611 -13 
L 2611 4416 
z
M 2125 851 
C 2125 760 2125 663 1926 488 
C 1798 378 1645 326 1498 326 
C 1152 326 698 585 698 1369 
C 698 2185 1210 2425 1562 2425 
C 1798 2425 1990 2308 2125 2114 
L 2125 851 
z
" transform="scale(0.015625)"/>
    </defs>
    <use xlink:href="#CMSS17-4e" transform="scale(0.996264)"/>
    <use xlink:href="#CMSS17-75" transform="translate(66.061519 0) scale(0.996264)"/>
    <use xlink:href="#CMSS17-6d" transform="translate(114.266462 0) scale(0.996264)"/>
    <use xlink:href="#CMSS17-62" transform="translate(188.495717 0) scale(0.996264)"/>
    <use xlink:href="#CMSS17-65" transform="translate(239.303099 0) scale(0.996264)"/>
    <use xlink:href="#CMSS17-72" transform="translate(280.941921 0) scale(0.996264)"/>
    <use xlink:href="#CMSS17-6f" transform="translate(344.080806 0) scale(0.996264)"/>
    <use xlink:href="#CMSS17-66" transform="translate(390.92443 0) scale(0.996264)"/>
    <use xlink:href="#CMSS17-55" transform="translate(450.780201 0) scale(0.996264)"/>
    <use xlink:href="#CMSS17-6e" transform="translate(514.919941 0) scale(0.996264)"/>
    <use xlink:href="#CMSS17-69" transform="translate(563.124884 0) scale(0.996264)"/>
    <use xlink:href="#CMSS17-71" transform="translate(585.305608 0) scale(0.996264)"/>
    <use xlink:href="#CMSS17-75" transform="translate(633.510551 0) scale(0.996264)"/>
    <use xlink:href="#CMSS17-65" transform="translate(681.715494 0) scale(0.996264)"/>
    <use xlink:href="#CMSS17-50" transform="translate(754.583429 0) scale(0.996264)"/>
    <use xlink:href="#CMSS17-68" transform="translate(814.319015 0) scale(0.996264)"/>
    <use xlink:href="#CMSS17-65" transform="translate(862.523958 0) scale(0.996264)"/>
    <use xlink:href="#CMSS17-6e" transform="translate(904.16278 0) scale(0.996264)"/>
    <use xlink:href="#CMSS17-6f" transform="translate(952.367723 0) scale(0.996264)"/>
    <use xlink:href="#CMSS17-6d" transform="translate(999.211347 0) scale(0.996264)"/>
    <use xlink:href="#CMSS17-65" transform="translate(1073.440601 0) scale(0.996264)"/>
    <use xlink:href="#CMSS17-6e" transform="translate(1115.079423 0) scale(0.996264)"/>
    <use xlink:href="#CMSS17-6f" transform="translate(1163.284366 0) scale(0.996264)"/>
    <use xlink:href="#CMSS17-6e" transform="translate(1210.12799 0) scale(0.996264)"/>
    <use xlink:href="#CMSS17-73" transform="translate(1258.332933 0) scale(0.996264)"/>
    <use xlink:href="#CMSS17-44" transform="translate(1325.475588 0) scale(0.996264)"/>
    <use xlink:href="#CMSS17-69" transform="translate(1393.018429 0) scale(0.996264)"/>
    <use xlink:href="#CMSS17-73" transform="translate(1415.199152 0) scale(0.996264)"/>
    <use xlink:href="#CMSS17-63" transform="translate(1451.112694 0) scale(0.996264)"/>
    <use xlink:href="#CMSS17-6f" transform="translate(1492.751517 0) scale(0.996264)"/>
    <use xlink:href="#CMSS17-76" transform="translate(1539.59514 0) scale(0.996264)"/>
    <use xlink:href="#CMSS17-65" transform="translate(1582.595282 0) scale(0.996264)"/>
    <use xlink:href="#CMSS17-72" transform="translate(1624.234104 0) scale(0.996264)"/>
    <use xlink:href="#CMSS17-65" transform="translate(1656.143876 0) scale(0.996264)"/>
    <use xlink:href="#CMSS17-64" transform="translate(1697.782698 0) scale(0.996264)"/>
   </g>
  </g>
  <g id="text_29">
   <!-- Methods -->
   <g transform="translate(201.110677 372.57066) scale(0.1 -0.1)">
    <use xlink:href="#CMSS17-4d" transform="scale(0.996264)"/>
    <use xlink:href="#CMSS17-65" transform="translate(81.67603 0) scale(0.996264)"/>
    <use xlink:href="#CMSS17-74" transform="translate(123.314852 0) scale(0.996264)"/>
    <use xlink:href="#CMSS17-68" transform="translate(157.146419 0) scale(0.996264)"/>
    <use xlink:href="#CMSS17-6f" transform="translate(205.351362 0) scale(0.996264)"/>
    <use xlink:href="#CMSS17-64" transform="translate(254.797424 0) scale(0.996264)"/>
    <use xlink:href="#CMSS17-73" transform="translate(303.002367 0) scale(0.996264)"/>
   </g>
  </g>
  <g id="text_30">
   <!-- Number of Phenomenons Discovered -->
   <g transform="translate(14.118498 256.836991) rotate(-90) scale(0.1 -0.1)">
    <use xlink:href="#CMSS17-4e" transform="scale(0.996264)"/>
    <use xlink:href="#CMSS17-75" transform="translate(66.061519 0) scale(0.996264)"/>
    <use xlink:href="#CMSS17-6d" transform="translate(114.266462 0) scale(0.996264)"/>
    <use xlink:href="#CMSS17-62" transform="translate(188.495717 0) scale(0.996264)"/>
    <use xlink:href="#CMSS17-65" transform="translate(239.303099 0) scale(0.996264)"/>
    <use xlink:href="#CMSS17-72" transform="translate(280.941921 0) scale(0.996264)"/>
    <use xlink:href="#CMSS17-6f" transform="translate(344.080806 0) scale(0.996264)"/>
    <use xlink:href="#CMSS17-66" transform="translate(390.92443 0) scale(0.996264)"/>
    <use xlink:href="#CMSS17-50" transform="translate(450.780201 0) scale(0.996264)"/>
    <use xlink:href="#CMSS17-68" transform="translate(510.515787 0) scale(0.996264)"/>
    <use xlink:href="#CMSS17-65" transform="translate(558.72073 0) scale(0.996264)"/>
    <use xlink:href="#CMSS17-6e" transform="translate(600.359553 0) scale(0.996264)"/>
    <use xlink:href="#CMSS17-6f" transform="translate(648.564496 0) scale(0.996264)"/>
    <use xlink:href="#CMSS17-6d" transform="translate(695.408119 0) scale(0.996264)"/>
    <use xlink:href="#CMSS17-65" transform="translate(769.637374 0) scale(0.996264)"/>
    <use xlink:href="#CMSS17-6e" transform="translate(811.276196 0) scale(0.996264)"/>
    <use xlink:href="#CMSS17-6f" transform="translate(859.481139 0) scale(0.996264)"/>
    <use xlink:href="#CMSS17-6e" transform="translate(906.324762 0) scale(0.996264)"/>
    <use xlink:href="#CMSS17-73" transform="translate(954.529705 0) scale(0.996264)"/>
    <use xlink:href="#CMSS17-44" transform="translate(1021.67236 0) scale(0.996264)"/>
    <use xlink:href="#CMSS17-69" transform="translate(1089.215202 0) scale(0.996264)"/>
    <use xlink:href="#CMSS17-73" transform="translate(1111.395925 0) scale(0.996264)"/>
    <use xlink:href="#CMSS17-63" transform="translate(1147.309467 0) scale(0.996264)"/>
    <use xlink:href="#CMSS17-6f" transform="translate(1188.948289 0) scale(0.996264)"/>
    <use xlink:href="#CMSS17-76" transform="translate(1235.791913 0) scale(0.996264)"/>
    <use xlink:href="#CMSS17-65" transform="translate(1278.792054 0) scale(0.996264)"/>
    <use xlink:href="#CMSS17-72" transform="translate(1320.430876 0) scale(0.996264)"/>
    <use xlink:href="#CMSS17-65" transform="translate(1352.340649 0) scale(0.996264)"/>
    <use xlink:href="#CMSS17-64" transform="translate(1393.979471 0) scale(0.996264)"/>
   </g>
  </g>
 </g>
 <defs>
  <clipPath id="p89ef5de0b5">
   <rect x="46.368" y="48.672" width="155.269565" height="115.70087"/>
  </clipPath>
  <clipPath id="pa19faf2950">
   <rect x="248.218435" y="48.672" width="155.269565" height="115.70087"/>
  </clipPath>
  <clipPath id="p9ed7583d72">
   <rect x="46.368" y="199.08313" width="155.269565" height="115.70087"/>
  </clipPath>
  <clipPath id="p14de1899fa">
   <rect x="248.218435" y="199.08313" width="155.269565" height="115.70087"/>
  </clipPath>
 </defs>
</svg>
